<?xml version="1.0" encoding="utf-8"?>
<!-- Generator: Adobe Illustrator 22.0.0, SVG Export Plug-In . SVG Version: 6.00 Build 0)  -->
<svg version="1.1" xmlns="http://www.w3.org/2000/svg" xmlns:xlink="http://www.w3.org/1999/xlink" x="0px" y="0px"
	 viewBox="0 0 948.5 948.5" style="enable-background:new 0 0 948.5 948.5;" xml:space="preserve">
<style type="text/css">
	.st0{fill:#124E8A;}
	.st1{fill:#F9D3CA;}
	.st2{fill:#F4A797;}
	.st3{fill:#D5B1AB;}
	.st4{fill:#5F2D1F;}
	.st5{fill:#5F6844;}
	.st6{fill:#4C5C44;}
	.st7{fill:none;}
	.st8{opacity:0.1;}
	.st9{fill:#333333;}
	.st10{fill:#0D0D0D;}
	.st11{fill:#1A1A1A;}
	.st12{fill:#92512E;}
</style>
<g id="Calque_2">
	<g>
		<rect class="st0" width="948.5" height="948.5"/>
	</g>
</g>
<g id="Calque_9">
	<path class="st1" d="M681.4,472.5c0-32.8-26.2-59.4-58.9-60.1v-16.8c0-102-83.4-185.4-185.4-185.4h0c-102,0-185.4,83.4-185.4,185.4
		v16.8c-33.2,0-60.1,26.9-60.1,60.1s26.9,60.1,60.1,60.1v56.7c0,102,83.4,185.4,185.4,185.4h0c102,0,185.4-83.4,185.4-185.4v-56.7
		C655.2,531.9,681.4,505.3,681.4,472.5z"/>
	<path class="st2" d="M447.5,406.9H426c-10.2,0-18.5,8.3-18.5,18.5V529c0,10.2,8.3,18.5,18.5,18.5h21.6c10.2,0,18.5-8.3,18.5-18.5
		V425.3C466,415.2,457.7,406.9,447.5,406.9z"/>
	<circle class="st3" cx="251.8" cy="472.5" r="21.1"/>
	<circle class="st3" cx="621.4" cy="472.5" r="21.1"/>
	<path class="st4" d="M435.8,562.6c0,0-201.3,30.6-259.5-12.2c0,0,72.4,96.1,173.3,97.7S435.8,562.6,435.8,562.6z"/>
	<path class="st4" d="M437.3,562.6c0,0,201.3,30.6,259.5-12.2c0,0-72.4,96.1-173.3,97.7S437.3,562.6,437.3,562.6z"/>
	<path class="st5" d="M627.3,332.8c0,0-68.2-158.5-95.1-154.3c-26.9,4.2-78.5,5.8-95.5,5.8h-0.2c-17,0-68.6-1.6-95.5-5.8
		c-26.9-4.2-95.1,154.3-95.1,154.3l71.8,48.1l118.8-12.4l118.8,12.4L627.3,332.8z"/>
	<path class="st5" d="M436.7,477.2c116.9,0,193-51.7,216.7-70.3c23.8-18.6-26.2-74.1-26.2-74.1c-52.8,36.5-185.3,35.7-190.6,35.7v0
		c0,0,0,0-0.1,0c-0.1,0-0.1,0-0.1,0v0c-5.3,0-137.8,0.8-190.6-35.7c0,0-49.9,55.5-26.2,74.1s99.9,70.3,216.8,70.3"/>
	<ellipse class="st6" cx="436.7" cy="184.3" rx="43.3" ry="14.3"/>
	<polygon class="st4" points="438,563.2 437.3,562.6 436.6,562.5 435.8,562.6 435.5,569.3 436.6,574 438.4,566.8 	"/>
</g>
<g id="Calque_8">
	<path class="st7" d="M436.7,198.6c-0.1,0-0.1,0-0.2,0l0,11.6c0,0,0.1,0,0.1,0L436.7,198.6z"/>
	<path class="st7" d="M436.6,210.2c0,0,0.1,0,0.1,0l0-11.6c-0.1,0-0.1,0-0.2,0L436.6,210.2z"/>
	<path class="st8" d="M436.7,198.6l0,11.6c0,0-0.1,0-0.1,0l0-11.6C436.6,198.6,436.6,198.6,436.7,198.6c-29.6-5.8-25.5-27.9,0-28.5
		c-22.6,0-41.1,5.7-43.1,13c-18.7-0.9-38.9-2.4-52.6-4.5c-26.9-4.2-95.1,154.3-95.1,154.3c50.7,30.1,190.7,35.7,190.7,35.7
		L436.7,198.6z"/>
	<path class="st8" d="M437.5,466.7c-112,0-155.5-66.2-1-74.5c154.5-8.3,190.8-59.4,190.8-59.4c-10.9,12.7-63.6,42.8-189.8,48.1
		s-191.6-48.1-191.6-48.1s-49.9,55.5-26.2,74.1c3.1,2.5,7.2,5.5,12.1,8.9c-23.4,8.2-40.3,30.5-40.3,56.7c0,33.2,26.9,60.1,60.1,60.1
		v38.7c-31-2.8-58.3-9-74.5-20.9c0,0,29.4,39,76.8,67.7c13.9,88.2,90.7,156.2,182.6,156.5V505.1c0,0,25.6,4.8,29.4-12.7
		c0,0,116.9,1.9,193.9-66c-5.5-4.6-11.8-8.2-18.6-10.6C625.1,429.2,549.5,466.7,437.5,466.7z"/>
</g>
<g id="Calque_6">
	<rect x="629.4" y="71.1" class="st9" width="10.6" height="467.8"/>
	<polygon class="st10" points="666.2,538.9 666.2,71.6 666.2,71.1 655.5,71.1 655.5,538.9 	"/>
	<rect x="640.1" y="71.1" class="st11" width="7.7" height="467.8"/>
	<rect x="647.8" y="71.1" class="st11" width="7.7" height="467.8"/>
	<rect x="666.2" y="71.6" class="st9" width="10.6" height="467.4"/>
	<rect x="692.3" y="71.6" class="st10" width="10.6" height="467.4"/>
	<rect x="676.8" y="71.6" class="st11" width="7.7" height="467.4"/>
	<rect x="684.5" y="71.6" class="st11" width="7.7" height="467.4"/>
	<polygon class="st11" points="692.3,538.9 684.5,538.9 676.8,538.9 666.2,538.9 655.5,538.9 647.8,538.9 640.1,538.9 629.4,538.9 
		629.4,801.1 640.1,801.1 647.8,801.1 655.5,801.1 666.2,801.1 666.2,801.6 676.8,801.6 684.5,801.6 692.3,801.6 702.9,801.6 
		702.9,538.9 	"/>
	<path class="st12" d="M624.1,744.1l-8.5,150.6c-0.2,3.7,1.9,6.9,4.6,6.9h89.4c2.7,0,4.8-3.1,4.7-6.8l-5.8-150.6
		c-0.1-3.4-2.2-6.1-4.7-6.1h-75.1C626.3,738.2,624.3,740.8,624.1,744.1z"/>
	<path class="st1" d="M594.1,729.4H582c-6,0-11-4.9-11-11v-57.3c0-6,4.9-11,11-11h12.2c6,0,11,4.9,11,11v57.3
		C605.1,724.5,600.1,729.4,594.1,729.4z"/>
	<path class="st8" d="M598,724.4h-10.7c-6.4,0-11.7-5.3-11.7-11.7v-55.9c0-1.8,0.4-3.5,1.2-5c-3.5,2-5.8,5.8-5.8,10.1v55.9
		c0,6.4,5.3,11.7,11.7,11.7h10.7c4.6,0,8.6-2.7,10.5-6.6C602.2,723.8,600.2,724.4,598,724.4z"/>
	<path class="st8" d="M713.8,894.9L708,744.3c-0.1-3.4-2.2-6.1-4.7-6.1h-9.4l0.4,11l-70.4-1.2l-1.9,32.6l73.5-0.3l3.9,102.6
		c0.1,3.7-2,6.8-4.7,6.8h-79.4l-0.3,5.1c-0.2,3.7,1.9,6.9,4.6,6.9h89.4C711.8,901.7,713.9,898.6,713.8,894.9z"/>
	<polygon class="st8" points="692.3,501.2 688.4,501.2 688.4,560.7 629.4,560.7 629.4,574.8 688.4,574.8 688.4,763.9 692.3,763.9 
		702.9,763.9 702.9,501.2 	"/>
	<path class="st12" d="M628.5,298.7l-0.4,260.5c0,0.9,0.7,1.6,1.6,1.6h73c0.9,0,1.6-0.7,1.6-1.6V298.7c0-0.9-0.7-1.6-1.6-1.6h-72.6
		C629.2,297.1,628.5,297.8,628.5,298.7z"/>
	<path class="st8" d="M702.7,297.1h-9v251c0,0.9-0.7,1.6-1.6,1.6h-63.9l0,9.5c0,0.9,0.7,1.6,1.6,1.6h73c0.9,0,1.6-0.7,1.6-1.6V298.7
		C704.3,297.8,703.5,297.1,702.7,297.1z"/>
	<path class="st1" d="M695.2,772.6h-61.7c-16.2,0-29.4-13.2-29.4-29.4v-76.8c0-16.2,13.2-29.4,29.4-29.4h61.7
		c16.2,0,29.4,13.2,29.4,29.4v76.8C724.6,759.4,711.4,772.6,695.2,772.6z"/>
	<path class="st8" d="M707.1,639.5c0.6,2.4,1,4.9,1,7.5v77.1c0,16.1-13.1,29.2-29.2,29.2h-62c-0.9,0-1.8,0-2.7-0.1
		c-2.8-4.5-4.5-9.9-4.5-15.6v-76.1c0-7,2.5-13.5,6.6-18.6c-7.3,5.4-12.2,14.1-12.2,23.9v76.1c0,2.8,0.4,5.5,1.1,8.1c0,0,0,0,0,0
		c3.2,12,14,21,26.9,21.6c0.2,0,0.5,0,0.7,0c0.2,0,0.4,0,0.6,0h0.4h61h0.6c16.1,0,29.2-13.1,29.2-29.2v-77.1
		C724.7,654.3,717.4,644,707.1,639.5z"/>
</g>
</svg>
