<?xml version="1.0" encoding="utf-8"?>
<!-- Generator: Adobe Illustrator 22.0.0, SVG Export Plug-In . SVG Version: 6.00 Build 0)  -->
<svg version="1.1" id="Calque_4" xmlns="http://www.w3.org/2000/svg" xmlns:xlink="http://www.w3.org/1999/xlink" x="0px" y="0px"
	 viewBox="0 0 948.5 948.5" style="enable-background:new 0 0 948.5 948.5;" xml:space="preserve">
<style type="text/css">
	.st0{fill:none;}
	.st1{fill:#FFFFFF;}
	.st2{fill:#124E8A;}
	.st3{opacity:0.1;}
	.st4{fill:url(#SVGID_1_);}
	.st5{fill:#E04A78;}
	.st6{fill:url(#SVGID_2_);}
</style>
<pattern  width="22.7" height="26.6" patternUnits="userSpaceOnUse" id="Nouvelle_nuance_de_motif_2" viewBox="28.3 -58.5 22.7 26.6" style="overflow:visible;">
	<g>
		<rect x="28.3" y="-58.5" class="st0" width="22.7" height="26.6"/>
		<g>
			
				<rect x="58" y="-37.1" transform="matrix(0.7607 0.6491 -0.6491 0.7607 3.4909 -43.0586)" class="st1" width="4.2" height="40.5"/>
			
				<rect x="62.4" y="-40.8" transform="matrix(0.7607 0.6491 -0.6491 0.7607 2.1151 -46.7907)" class="st1" width="4.2" height="40.5"/>
		</g>
		<g>
			
				<rect x="35.3" y="-37.1" transform="matrix(0.7607 0.6491 -0.6491 0.7607 -1.938 -28.3314)" class="st1" width="4.2" height="40.5"/>
			
				<rect x="39.7" y="-40.8" transform="matrix(0.7607 0.6491 -0.6491 0.7607 -3.3138 -32.0635)" class="st1" width="4.2" height="40.5"/>
			
				<rect x="44.1" y="-44.5" transform="matrix(0.7607 0.6491 -0.6491 0.7607 -4.6896 -35.7956)" class="st1" width="4.2" height="40.5"/>
		</g>
		<g>
			
				<rect x="12.6" y="-37.1" transform="matrix(0.7607 0.6491 -0.6491 0.7607 -7.3669 -13.6042)" class="st1" width="4.2" height="40.5"/>
			
				<rect x="17" y="-40.8" transform="matrix(0.7607 0.6491 -0.6491 0.7607 -8.7427 -17.3363)" class="st1" width="4.2" height="40.5"/>
			
				<rect x="21.4" y="-44.5" transform="matrix(0.7607 0.6491 -0.6491 0.7607 -10.1185 -21.0684)" class="st1" width="4.2" height="40.5"/>
		</g>
		<g>
			
				<rect x="53.6" y="-59.9" transform="matrix(0.7607 0.6491 -0.6491 0.7607 -12.3919 -45.6886)" class="st1" width="4.2" height="40.5"/>
			
				<rect x="58" y="-63.6" transform="matrix(0.7607 0.6491 -0.6491 0.7607 -13.7677 -49.4207)" class="st1" width="4.2" height="40.5"/>
			
				<rect x="62.4" y="-67.4" transform="matrix(0.7607 0.6491 -0.6491 0.7607 -15.1434 -53.1528)" class="st1" width="4.2" height="40.5"/>
		</g>
		<g>
			
				<rect x="31" y="-59.9" transform="matrix(0.7607 0.6491 -0.6491 0.7607 -17.8208 -30.9613)" class="st1" width="4.2" height="40.5"/>
			
				<rect x="35.3" y="-63.6" transform="matrix(0.7607 0.6491 -0.6491 0.7607 -19.1966 -34.6934)" class="st1" width="4.2" height="40.5"/>
			
				<rect x="39.7" y="-67.4" transform="matrix(0.7607 0.6491 -0.6491 0.7607 -20.5724 -38.4256)" class="st1" width="4.2" height="40.5"/>
			
				<rect x="44.1" y="-71.1" transform="matrix(0.7607 0.6491 -0.6491 0.7607 -21.9481 -42.1577)" class="st1" width="4.2" height="40.5"/>
		</g>
		<g>
			
				<rect x="12.6" y="-63.6" transform="matrix(0.7607 0.6491 -0.6491 0.7607 -24.6255 -19.9662)" class="st1" width="4.2" height="40.5"/>
			
				<rect x="17" y="-67.4" transform="matrix(0.7607 0.6491 -0.6491 0.7607 -26.0013 -23.6983)" class="st1" width="4.2" height="40.5"/>
			
				<rect x="21.4" y="-71.1" transform="matrix(0.7607 0.6491 -0.6491 0.7607 -27.3771 -27.4304)" class="st1" width="4.2" height="40.5"/>
		</g>
		<g>
			
				<rect x="53.6" y="-86.5" transform="matrix(0.7607 0.6491 -0.6491 0.7607 -29.6505 -52.0506)" class="st1" width="4.2" height="40.5"/>
			
				<rect x="58" y="-90.2" transform="matrix(0.7607 0.6491 -0.6491 0.7607 -31.0262 -55.7827)" class="st1" width="4.2" height="40.5"/>
			
				<rect x="62.4" y="-94" transform="matrix(0.7607 0.6491 -0.6491 0.7607 -32.402 -59.5148)" class="st1" width="4.2" height="40.5"/>
		</g>
		<g>
			
				<rect x="31" y="-86.5" transform="matrix(0.7607 0.6491 -0.6491 0.7607 -35.0794 -37.3234)" class="st1" width="4.2" height="40.5"/>
			
				<rect x="35.3" y="-90.2" transform="matrix(0.7607 0.6491 -0.6491 0.7607 -36.4552 -41.0555)" class="st1" width="4.2" height="40.5"/>
			
				<rect x="39.7" y="-94" transform="matrix(0.7607 0.6491 -0.6491 0.7607 -37.8309 -44.7876)" class="st1" width="4.2" height="40.5"/>
		</g>
		<g>
			
				<rect x="12.6" y="-90.2" transform="matrix(0.7607 0.6491 -0.6491 0.7607 -41.8841 -26.3283)" class="st1" width="4.2" height="40.5"/>
			
				<rect x="17" y="-94" transform="matrix(0.7607 0.6491 -0.6491 0.7607 -43.2598 -30.0604)" class="st1" width="4.2" height="40.5"/>
		</g>
	</g>
</pattern>
<rect class="st2" width="948.5" height="948.5"/>
<polygon class="st1" points="476.6,753.3 476.6,667.5 471.9,667.5 471.9,753.3 455,743.5 474.3,790.7 493.6,743.5 "/>
<g>
	<g>
		<path class="st1" d="M426.6,498.6c0,0-80.3-57.8-62.9-140c18.4-87.1-38.4-131.2-115.1-134.4c-25-1-81.1-3.9-117.2-67.7
			c0,0-59.2,98.1,18.9,143.2c0,0-22.6,12-48.4-24.4c0,0-39.8,91.4,23.1,113.4c0,0-16.3,14.7-37.1-8c0,0-24,92.9,62.1,98.6
			c0,0-16.2,20.4-31.8,11.4c0,0,39.1,81.1,127,28.2c0,0-14.6,25.4-38.4,39.4c0,0,43.9,39.8,114.5-27.7
			c51.2-48.9,89.4-24.1,89.4-24.1L426.6,498.6z"/>
	</g>
</g>
<g class="st3">
	<path d="M360.7,453c-9.3-9.4-18-19.5-25.5-30.7c-0.9-1.4-1.7-2.9-2.6-4.3l-1.3-2.2l-0.6-1.1l-0.6-1.1l-2.3-4.5l-0.6-1.1l-0.5-1.2
		l-1-2.4c-1.4-3.1-2.3-6.4-3.4-9.7l-1.2-5l-0.3-1.3l-0.2-1.3l-0.4-2.6c-0.9-6.8-0.9-13.8-0.1-20.6c0.8-6.8,2.3-13.5,3.8-19.9
		c0.7-3,1.2-6.1,1.5-9.2c0.1-1.6,0.2-3.1,0.3-4.7c0-1.6,0.1-3.1,0-4.7c-0.2-6.3-1.1-12.6-2.6-18.6c-3.1-12.2-9.1-23.5-17.5-32.9
		l-1.6-1.7c-0.5-0.6-1-1.2-1.6-1.7l-3.4-3.3c-2.4-2-4.8-4.1-7.4-5.9l-1.9-1.4c-0.6-0.5-1.3-0.9-2-1.3c-1.4-0.8-2.7-1.7-4.1-2.5
		c-2.8-1.5-5.6-3.2-8.5-4.5c-5.8-2.9-11.9-4.9-18-7l-4.7-1.3c-1.6-0.4-3.1-0.9-4.7-1.3l-4.8-1.1l-2.4-0.5c-0.8-0.2-1.6-0.3-2.4-0.4
		c-12.9-2.5-26-3.7-39.2-4.4c13.2-1.2,26.6-1.1,39.9,0.2c0.8,0.1,1.7,0.1,2.5,0.3l2.5,0.4l5,0.8c1.7,0.2,3.3,0.6,4.9,0.9l4.9,1
		c6.5,1.7,13,3.6,19.3,6.3c3.2,1.2,6.2,2.8,9.3,4.3c1.5,0.8,3,1.7,4.5,2.6c0.7,0.4,1.5,0.8,2.2,1.3l2.1,1.4l2.1,1.4l1.1,0.7l1,0.8
		l4.1,3.2l3.8,3.5c0.7,0.6,1.2,1.2,1.8,1.8l1.8,1.9c4.7,5.1,8.8,10.8,12.1,16.9c3.3,6.1,5.9,12.6,7.6,19.4
		c1.7,6.7,2.7,13.6,2.8,20.6c0.1,6.9-0.6,13.9-2.3,20.7c-1.7,6.4-3.2,12.6-4.2,18.9c-1,6.3-1.3,12.6-0.8,18.9l0.2,2.4l0.1,1.2
		l0.2,1.2l0.8,4.7c0.8,3.1,1.5,6.2,2.6,9.2l0.8,2.3l0.4,1.1l0.5,1.1l1.9,4.5l0.5,1.1l0.5,1.1l1.1,2.2c0.7,1.4,1.5,2.9,2.2,4.3
		C345.1,431.6,352.8,442.4,360.7,453z"/>
</g>
<pattern  id="SVGID_1_" xlink:href="#Nouvelle_nuance_de_motif_2" patternTransform="matrix(0.9485 0 0 0.9485 -385.95 -307.3145)">
</pattern>
<path class="st4" d="M469,270.9v131.7c0,0-20.4-35.4-23.5-89.3C443.1,273,469,270.9,469,270.9z"/>
<path class="st1" d="M477.6,524.6V231.9c0-1.8-1.5-3.3-3.3-3.3c-1.8,0-3.3,1.5-3.3,3.3v292.6l3.3,3.3L477.6,524.6z"/>
<g class="st3">
	<path d="M205.6,273.3c-3.9,3.7-9,6-14.3,6.9c-2.7,0.5-5.4,0.7-8.1,0.7c-2.7,0-5.4-0.2-8.1-0.5c-5.4-0.7-10.6-1.9-15.8-3.4
		c-5.2-1.5-10.2-3.4-15.2-5.7l2.3-1.3c0,2,0.1,4.3,0.3,6.4c0.2,2.1,0.6,4.3,1.1,6.3c1,4.2,2.4,8.2,4.4,12c2,3.7,4.5,7.2,7.4,10.1
		c3,2.9,6.5,5.3,10.2,7.1c1,0.4,1.9,0.9,2.9,1.2c1,0.3,1.9,0.7,3,1l3.1,0.9c1,0.3,2.1,0.6,3.1,0.8c2.1,0.5,4.2,1,6.3,1.3
		c1.1,0.1,2.1,0.4,3.2,0.5l3.2,0.3c4.2,0.3,8.4,0.1,12.4-0.7c2-0.3,4-1,5.8-1.7l1.4-0.6c0.4-0.2,0.9-0.4,1.3-0.7
		c0.4-0.2,0.8-0.5,1.2-0.7c0.4-0.2,0.8-0.6,0.9-0.7c1.3-1.2,3.4-1.1,4.5,0.3c0.9,1,1,2.4,0.5,3.5l0,0c-0.3,0.6-0.5,0.9-0.7,1.3
		c-0.2,0.4-0.5,0.7-0.7,1.1c-0.4,0.7-1,1.4-1.5,2c-0.5,0.7-1.1,1.2-1.6,1.9c-0.5,0.6-1.1,1.2-1.7,1.7c-2.3,2.3-5,4.1-7.7,5.8
		c-5.5,3.3-11.7,5.1-17.9,6.2l-2.3,0.4l-1.2,0.2l-1.2,0.1l-4.6,0.3l-1.2,0.1l-1.2,0l-2.3-0.1c-1.5-0.1-3.1-0.1-4.6-0.2
		c-3-0.4-6.1-0.6-9.1-1.1l-9-1.7l4.4-5.2c0.3,0.7,0.8,1.7,1.2,2.5c0.4,0.9,0.9,1.7,1.4,2.6c1,1.7,2.1,3.4,3.2,5
		c2.3,3.2,4.8,6.3,7.5,9.1c5.5,5.6,12,10.1,19.1,13c3.6,1.5,7.3,2.4,11.1,3c1,0.1,1.9,0.3,2.9,0.4l2.9,0.2c1,0.1,1.9,0,2.9,0l1.5,0
		c0.5,0,1-0.1,1.5-0.1c7.8-0.5,15.5-2.4,23-5.3l0,0c2.2-0.8,4.6,0.2,5.5,2.4c0.5,1.2,0.3,2.4-0.2,3.5c-0.5,0.9-0.8,1.5-1.3,2.3
		c-0.4,0.7-0.8,1.4-1.3,2.1c-0.9,1.4-1.8,2.7-2.7,4c-1.9,2.6-3.9,5.2-6.1,7.6c-4.4,4.8-9.2,9.2-14.6,12.9
		c-5.4,3.7-11.3,6.7-17.6,8.8c-6.3,2.1-12.9,3.2-19.5,3.4l2.6-7.3c0.6,0.5,1.5,1.2,2.3,1.8c0.8,0.6,1.6,1.2,2.5,1.8
		c1.7,1.2,3.4,2.3,5.1,3.3c3.5,2.1,7.1,4,10.9,5.7c7.5,3.4,15.4,5.7,23.4,7c4,0.6,8.1,0.9,12.2,0.9c4.1,0,8.1-0.4,12.2-1
		c8-1.3,15.9-3.9,23.3-7.5l0.1-0.1c1.8-0.8,3.9-0.1,4.7,1.7c0.3,0.6,0.4,1.3,0.3,1.9c-0.2,1.6-0.4,2.9-0.6,4.3
		c-0.3,1.4-0.5,2.8-0.8,4.2c-0.6,2.8-1.4,5.5-2.2,8.2c-1.7,5.4-4,10.6-6.9,15.6c-1.5,2.5-3.1,4.8-4.9,7.1c-1.9,2.2-3.9,4.3-6.1,6.2
		c-2.2,1.9-4.7,3.5-7.3,4.9c-2.6,1.4-5.4,2.3-8.2,3.1l-0.2-5.5c5,0.9,10.3,1.5,15.5,1.9c5.2,0.4,10.4,0.5,15.7,0.2
		c5.2-0.2,10.4-0.8,15.4-1.9c5-1.1,9.9-2.8,14.3-5.4l0.1-0.1c0.8-0.5,1.8-0.2,2.3,0.6c0.1,0.1,0.1,0.3,0.2,0.4
		c0.7,2.7,0.9,5.3,0.9,8c0,2.6-0.4,5.3-1.3,7.9c-0.8,2.6-2.2,5-4,7c-1.8,2-4,3.6-6.3,4.8l-0.2-2c1.4,0.4,3.1,0.6,4.7,0.6
		c1.6,0,3.3-0.1,4.9-0.4c3.3-0.5,6.5-1.6,9.5-3c3.1-1.3,6-3.1,8.8-5c1.4-1,2.7-2,4.1-3l3.9-3.3l-3.7,3.5c-1.3,1.1-2.6,2.2-3.9,3.3
		c-2.7,2-5.6,4-8.7,5.5c-3.1,1.6-6.3,2.8-9.7,3.6c-1.7,0.3-3.5,0.6-5.2,0.7c-1.8,0.1-3.5,0-5.4-0.5c-0.6-0.1-0.9-0.7-0.8-1.3
		c0.1-0.3,0.3-0.5,0.5-0.7l0.1-0.1c2.1-1.2,4-2.7,5.4-4.5c1.5-1.8,2.5-3.9,3.2-6.2c0.7-2.3,0.9-4.6,0.8-7c-0.1-2.3-0.4-4.8-1-7
		l2.6,1c-4.7,3-9.9,5.1-15.2,6.4c-5.3,1.4-10.7,2.2-16.1,2.6c-5.4,0.4-10.8,0.5-16.2,0.2c-5.4-0.2-10.7-0.7-16.2-1.5
		c-1.5-0.2-2.6-1.6-2.3-3.2c0.2-1.1,0.9-1.9,1.9-2.2l0.2-0.1c2.4-0.8,4.7-1.7,6.9-2.9c2.2-1.2,4.3-2.6,6.1-4.3
		c1.9-1.7,3.6-3.5,5.2-5.5c1.6-2,3-4.2,4.2-6.4c2.5-4.5,4.5-9.4,6-14.4c0.7-2.5,1.4-5.1,1.9-7.6c0.3-1.3,0.5-2.6,0.7-3.9
		c0.2-1.3,0.4-2.6,0.5-3.8l5.1,3.5c-7.9,4-16.4,6.9-25.2,8.5c-4.4,0.8-8.9,1.2-13.3,1.3c-4.5,0-8.9-0.2-13.4-0.8
		c-8.8-1.2-17.5-3.7-25.6-7.3c-4.1-1.8-8-3.8-11.8-6.1c-1.9-1.1-3.8-2.3-5.6-3.6c-0.9-0.6-1.8-1.3-2.7-2c-0.9-0.7-1.8-1.3-2.7-2.2
		c-1.7-1.5-1.9-4.1-0.5-5.8c0.8-0.9,1.9-1.4,3-1.4l0.1,0c5.8-0.2,11.5-1.1,17-3c5.5-1.8,10.7-4.5,15.4-7.8
		c4.8-3.3,9.2-7.3,13.1-11.7c2-2.2,3.8-4.5,5.6-6.9c0.9-1.2,1.7-2.4,2.5-3.6c0.4-0.6,0.8-1.2,1.1-1.9c0.4-0.6,0.7-1.3,1-1.8l5.3,5.9
		c-8.1,3.1-16.7,5.2-25.5,5.8c-0.6,0-1.1,0.1-1.7,0.1l-1.7,0c-1.1,0-2.2,0-3.3,0l-3.3-0.3c-1.1-0.1-2.2-0.3-3.3-0.4
		c-4.4-0.7-8.8-1.8-12.9-3.6c-4.1-1.7-8.1-3.9-11.7-6.4c-3.7-2.5-7-5.5-10-8.7c-3-3.2-5.8-6.6-8.2-10.2c-1.2-1.8-2.4-3.7-3.5-5.6
		c-0.5-1-1.1-1.9-1.6-2.9c-0.5-1-1-1.9-1.4-3.1c-0.8-1.9,0.1-4.2,2.1-5c0.7-0.3,1.5-0.4,2.2-0.2l0.1,0l8.4,1.7
		c2.8,0.4,5.7,0.7,8.5,1.1c1.4,0.1,2.8,0.1,4.2,0.2l2.1,0.1l1.1,0l1.1-0.1l4.2-0.2l1.1,0l1-0.1l2.1-0.3c5.5-0.8,10.9-2.3,15.6-5
		c2.3-1.4,4.6-2.8,6.5-4.7c0.5-0.4,1-0.9,1.4-1.4c0.4-0.5,0.9-0.9,1.3-1.5c0.4-0.5,0.8-1,1.2-1.5c0.2-0.3,0.4-0.5,0.5-0.8l0.4-0.7
		l5,3.8c-0.7,0.6-1.2,0.9-1.8,1.2c-0.6,0.3-1.1,0.6-1.7,0.9c-0.6,0.3-1.1,0.6-1.7,0.8l-1.7,0.7c-2.3,0.8-4.6,1.5-7,1.8
		c-4.7,0.8-9.4,0.8-14,0.5l-3.4-0.4c-1.2-0.1-2.3-0.4-3.4-0.6c-2.3-0.4-4.5-1-6.7-1.6c-1.1-0.3-2.2-0.6-3.3-1l-3.2-1.1
		c-1.1-0.3-2.2-0.8-3.3-1.2c-1.1-0.4-2.1-1-3.2-1.5c-4.2-2.1-8-5-11.3-8.3c-3.2-3.4-5.9-7.3-7.9-11.5c-2-4.2-3.4-8.6-4.2-13.1
		c-0.4-2.2-0.7-4.5-0.9-6.8c-0.2-2.3-0.2-4.5-0.1-6.9c0.1-0.9,0.8-1.5,1.7-1.5c0.2,0,0.4,0.1,0.6,0.2c4.6,2.3,9.6,4.4,14.6,6.1
		c5,1.7,10.1,3.2,15.3,4.1c5.2,0.9,10.5,1.3,15.8,0.6C196.3,278.8,201.5,276.8,205.6,273.3z"/>
</g>
<path class="st0" d="M474.6,615.9c-0.1,0-0.1,0-0.2,0l0.1,87.5l0.1,0V615.9z"/>
<g>
	<g>
		<path class="st1" d="M522.2,498.5c0,0,80.3-57.8,62.9-140c-18.4-87.1,38.4-131.2,115.1-134.4c25-1,81.1-3.9,117.2-67.7
			c0,0,59.2,98.1-18.9,143.2c0,0,22.6,12,48.4-24.4c0,0,39.8,91.4-23.1,113.4c0,0,16.3,14.7,37.1-8c0,0,24,92.9-62.1,98.6
			c0,0,16.2,20.4,31.8,11.4c0,0-39.1,81.1-127,28.2c0,0,14.6,25.4,38.4,39.4c0,0-43.9,39.8-114.5-27.7
			c-51.2-48.9-89.4-24.1-89.4-24.1L522.2,498.5z"/>
	</g>
</g>
<path class="st5" d="M627,527.8c0-84.6-99.1-119.2-152.5-56.5l-0.3,0.1c-53.4-62.6-152.5-28.1-152.5,56.5s152.6,175.3,152.6,175.3
	l0,0C477.7,701.3,627,611.5,627,527.8z"/>
<g class="st3">
	<path d="M588.1,452.9c7.9-10.6,15.6-21.4,21.9-32.8c0.8-1.4,1.5-2.9,2.2-4.3l1.1-2.2l0.5-1.1l0.5-1.1l1.9-4.5l0.5-1.1l0.4-1.1
		l0.8-2.3c1.1-3,1.8-6.1,2.6-9.2l0.8-4.7l0.2-1.2l0.1-1.2l0.2-2.4c0.5-6.3,0.2-12.6-0.8-18.9c-1-6.3-2.5-12.5-4.2-18.9
		c-1.8-6.8-2.4-13.8-2.3-20.7c0.1-6.9,1.1-13.8,2.8-20.6c1.7-6.7,4.3-13.2,7.6-19.4c3.3-6.1,7.4-11.8,12.1-16.9l1.8-1.9
		c0.6-0.6,1.2-1.3,1.8-1.8l3.8-3.5l4.1-3.2l1-0.8l1.1-0.7l2.1-1.4l2.1-1.4c0.7-0.5,1.5-0.9,2.2-1.3c1.5-0.9,2.9-1.8,4.5-2.6
		c3.1-1.5,6.1-3.1,9.3-4.3c6.3-2.7,12.8-4.6,19.3-6.3l4.9-1c1.7-0.3,3.3-0.7,4.9-0.9l5-0.8l2.5-0.4c0.8-0.1,1.7-0.2,2.5-0.3
		c13.3-1.4,26.7-1.4,39.9-0.2c-13.2,0.7-26.4,1.9-39.2,4.4c-0.8,0.2-1.6,0.3-2.4,0.4l-2.4,0.5l-4.8,1.1c-1.6,0.3-3.1,0.8-4.7,1.3
		l-4.7,1.3c-6.1,2.1-12.3,4.1-18,7c-2.9,1.3-5.7,2.9-8.5,4.5c-1.4,0.8-2.7,1.7-4.1,2.5c-0.7,0.4-1.4,0.8-2,1.3l-1.9,1.4
		c-2.6,1.8-5,3.9-7.4,5.9l-3.4,3.3c-0.6,0.5-1.1,1.1-1.6,1.7l-1.6,1.7c-8.3,9.4-14.4,20.8-17.5,32.9c-1.6,6.1-2.5,12.3-2.6,18.6
		c-0.1,1.6,0,3.1,0,4.7c0,1.6,0.2,3.1,0.3,4.7c0.3,3.1,0.8,6.2,1.5,9.2c1.5,6.4,3,13.1,3.8,19.9c0.8,6.8,0.8,13.8-0.1,20.6l-0.4,2.6
		l-0.2,1.3l-0.3,1.3l-1.2,5c-1.1,3.3-2,6.6-3.4,9.7l-1,2.4l-0.5,1.2L621,409l-2.3,4.5l-0.6,1.1l-0.6,1.1l-1.3,2.2
		c-0.9,1.4-1.7,2.9-2.6,4.3C606.1,433.4,597.4,443.5,588.1,452.9z"/>
</g>
<pattern  id="SVGID_2_" xlink:href="#Nouvelle_nuance_de_motif_2" patternTransform="matrix(-0.9485 0 0 0.9485 -14909.7734 -307.3145)">
</pattern>
<path class="st6" d="M479.8,270.9v131.7c0,0,20.4-35.4,23.5-89.3C505.7,273,479.8,270.9,479.8,270.9z"/>
<g class="st3">
	<path d="M743.2,273.3c4.1,3.5,9.2,5.4,14.5,6c5.2,0.6,10.6,0.2,15.8-0.6c5.2-0.9,10.3-2.3,15.3-4.1c5-1.8,9.9-3.8,14.6-6.1
		c0.8-0.4,1.7-0.1,2.1,0.7c0.1,0.2,0.2,0.4,0.2,0.6c0.2,2.4,0.1,4.6-0.1,6.9c-0.2,2.3-0.5,4.5-0.9,6.8c-0.9,4.5-2.2,8.9-4.2,13.1
		c-2,4.2-4.7,8.1-7.9,11.5c-3.3,3.3-7.1,6.2-11.3,8.3c-1.1,0.5-2.1,1-3.2,1.5c-1.1,0.4-2.2,0.9-3.3,1.2l-3.2,1.1
		c-1.1,0.4-2.2,0.7-3.3,1c-2.2,0.6-4.4,1.2-6.7,1.6c-1.1,0.2-2.2,0.5-3.4,0.6l-3.4,0.4c-4.6,0.4-9.3,0.4-14-0.5
		c-2.3-0.4-4.7-1-7-1.8l-1.7-0.7c-0.6-0.2-1.1-0.5-1.7-0.8c-0.6-0.3-1.1-0.6-1.7-0.9c-0.6-0.4-1-0.6-1.8-1.2l5-3.8l0.4,0.7
		c0.1,0.3,0.3,0.5,0.5,0.8c0.3,0.5,0.8,1,1.2,1.5c0.4,0.5,0.9,1,1.3,1.5c0.4,0.5,0.9,0.9,1.4,1.4c1.9,1.9,4.2,3.3,6.5,4.7
		c4.7,2.7,10.1,4.2,15.6,5l2.1,0.3l1,0.1l1.1,0l4.2,0.2l1.1,0.1l1.1,0l2.1-0.1c1.4-0.1,2.8-0.1,4.2-0.2c2.8-0.4,5.7-0.7,8.5-1.1
		l8.4-1.7l0.1,0c2.1-0.4,4.1,0.9,4.5,3c0.2,0.8,0.1,1.6-0.2,2.2c-0.5,1.2-0.9,2.1-1.4,3.1c-0.5,1-1,2-1.6,2.9
		c-1.1,1.9-2.2,3.8-3.5,5.6c-2.5,3.6-5.2,7.1-8.2,10.2c-3,3.2-6.4,6.1-10,8.7c-3.7,2.5-7.6,4.7-11.7,6.4c-4.1,1.7-8.5,2.9-12.9,3.6
		c-1.1,0.1-2.2,0.4-3.3,0.4l-3.3,0.3c-1.1,0.1-2.2,0-3.3,0l-1.7,0c-0.6,0-1.1-0.1-1.7-0.1c-8.9-0.5-17.5-2.7-25.5-5.8l5.3-5.9
		c0.3,0.5,0.7,1.2,1,1.8c0.4,0.6,0.8,1.2,1.1,1.9c0.8,1.2,1.6,2.4,2.5,3.6c1.7,2.4,3.6,4.7,5.6,6.9c3.9,4.4,8.3,8.4,13.1,11.7
		c4.8,3.3,10,6,15.4,7.8c5.5,1.9,11.2,2.8,17,3l0.1,0c2.3,0.1,4.1,2,4,4.3c0,1.2-0.6,2.3-1.4,3c-1,0.8-1.8,1.5-2.7,2.2
		c-0.9,0.7-1.8,1.3-2.7,2c-1.8,1.3-3.7,2.5-5.6,3.6c-3.8,2.3-7.8,4.3-11.8,6.1c-8.1,3.5-16.8,6-25.6,7.3c-4.4,0.6-8.9,0.8-13.4,0.8
		c-4.5-0.1-8.9-0.5-13.3-1.3c-8.8-1.6-17.3-4.5-25.2-8.5l5.1-3.5c0.1,1.1,0.3,2.5,0.5,3.8c0.2,1.3,0.4,2.6,0.7,3.9
		c0.5,2.6,1.1,5.1,1.9,7.6c1.5,5,3.4,9.9,6,14.4c1.3,2.2,2.7,4.4,4.2,6.4c1.6,2,3.3,3.8,5.2,5.5c1.9,1.7,4,3.1,6.1,4.3
		c2.2,1.2,4.5,2.1,6.9,2.9l0.2,0.1c1.5,0.5,2.3,2,1.8,3.5c-0.3,1-1.2,1.8-2.2,1.9c-5.5,0.8-10.8,1.3-16.2,1.5
		c-5.4,0.2-10.8,0.2-16.2-0.2c-5.4-0.4-10.8-1.2-16.1-2.6c-5.3-1.4-10.5-3.4-15.2-6.4l2.6-1c-0.6,2.1-1,4.6-1,7
		c-0.1,2.4,0.2,4.8,0.8,7c0.6,2.3,1.7,4.4,3.2,6.2c1.5,1.8,3.3,3.3,5.4,4.5l0.1,0.1c0.5,0.3,0.7,0.9,0.4,1.4
		c-0.1,0.3-0.4,0.4-0.7,0.5c-1.9,0.5-3.6,0.5-5.4,0.5c-1.8,0-3.5-0.3-5.2-0.7c-3.4-0.7-6.7-2-9.7-3.6c-3.1-1.5-5.9-3.5-8.7-5.5
		c-1.3-1.1-2.6-2.2-3.9-3.3l-3.7-3.5l3.9,3.3c1.4,1,2.7,2,4.1,3c2.8,1.8,5.7,3.6,8.8,5c3.1,1.3,6.3,2.4,9.5,3
		c1.6,0.2,3.3,0.4,4.9,0.4c1.6,0,3.3-0.2,4.7-0.6l-0.2,2c-2.3-1.2-4.6-2.8-6.3-4.8c-1.8-2-3.1-4.4-4-7c-0.9-2.6-1.2-5.2-1.3-7.9
		c0-2.7,0.2-5.2,0.9-8c0.2-0.9,1.1-1.4,2-1.2c0.2,0,0.3,0.1,0.4,0.2l0.1,0.1c4.4,2.6,9.3,4.3,14.3,5.4c5,1.1,10.2,1.7,15.4,1.9
		c5.2,0.2,10.4,0.1,15.7-0.2c5.2-0.4,10.5-1,15.5-1.9l-0.2,5.5c-2.8-0.8-5.6-1.8-8.2-3.1c-2.6-1.4-5.1-3-7.3-4.9
		c-2.2-1.9-4.3-4-6.1-6.2c-1.8-2.2-3.5-4.6-4.9-7.1c-2.9-4.9-5.2-10.2-6.9-15.6c-0.9-2.7-1.6-5.4-2.2-8.2c-0.3-1.4-0.6-2.8-0.8-4.2
		c-0.2-1.4-0.5-2.8-0.6-4.3c-0.2-1.9,1.2-3.7,3.1-3.9c0.7-0.1,1.3,0,1.9,0.3l0.1,0.1c7.4,3.5,15.2,6.2,23.3,7.5c4,0.6,8.1,1,12.2,1
		c4.1,0,8.1-0.3,12.2-0.9c8.1-1.2,15.9-3.6,23.4-7c3.7-1.7,7.4-3.6,10.9-5.7c1.8-1.1,3.5-2.2,5.1-3.3c0.8-0.6,1.7-1.2,2.5-1.8
		c0.8-0.6,1.6-1.3,2.3-1.8l2.6,7.3c-6.6-0.2-13.2-1.2-19.5-3.4c-6.3-2.1-12.2-5.1-17.6-8.8c-5.4-3.7-10.3-8.1-14.6-12.9
		c-2.2-2.4-4.2-5-6.1-7.6c-1-1.3-1.9-2.7-2.7-4c-0.4-0.7-0.9-1.4-1.3-2.1c-0.4-0.7-0.8-1.4-1.3-2.3c-1.1-2.1-0.3-4.6,1.8-5.7
		c1.1-0.6,2.4-0.6,3.5-0.2l0,0c7.4,2.9,15.2,4.8,23,5.3c0.5,0,1,0.1,1.5,0.1l1.5,0c1,0,1.9,0,2.9,0l2.9-0.2c1,0,1.9-0.3,2.9-0.4
		c3.8-0.6,7.6-1.5,11.1-3c7.1-2.9,13.6-7.4,19.1-13c2.7-2.8,5.3-5.9,7.5-9.1c1.1-1.6,2.2-3.3,3.2-5c0.5-0.9,1-1.7,1.4-2.6
		c0.4-0.8,0.9-1.8,1.2-2.5l4.4,5.2l-9,1.7c-3,0.4-6.1,0.7-9.1,1.1c-1.5,0.1-3.1,0.1-4.6,0.2l-2.3,0.1l-1.2,0l-1.2-0.1l-4.6-0.3
		l-1.2-0.1L760,337l-2.3-0.4c-6.2-1-12.3-2.9-17.9-6.2c-2.7-1.7-5.4-3.5-7.7-5.8c-0.6-0.6-1.2-1.1-1.7-1.7c-0.5-0.6-1.1-1.2-1.6-1.9
		c-0.5-0.7-1-1.3-1.5-2c-0.2-0.4-0.5-0.7-0.7-1.1c-0.2-0.4-0.4-0.7-0.7-1.3l0,0c-0.7-1.6-0.1-3.5,1.6-4.3c1.2-0.6,2.6-0.3,3.5,0.5
		c0.1,0.1,0.6,0.4,0.9,0.7c0.4,0.2,0.8,0.5,1.2,0.7c0.4,0.2,0.9,0.4,1.3,0.7l1.4,0.6c1.9,0.7,3.8,1.3,5.8,1.7
		c4,0.8,8.2,0.9,12.4,0.7l3.2-0.3c1.1-0.1,2.1-0.3,3.2-0.5c2.1-0.3,4.2-0.8,6.3-1.3c1.1-0.2,2.1-0.5,3.1-0.8l3.1-0.9
		c1-0.3,2-0.7,3-1c1-0.4,1.9-0.8,2.9-1.2c3.8-1.8,7.2-4.2,10.2-7.1c3-2.9,5.5-6.3,7.4-10.1c2-3.7,3.4-7.8,4.4-12
		c0.5-2.1,0.9-4.2,1.1-6.3c0.2-2.1,0.4-4.3,0.3-6.4l2.3,1.3c-5,2.3-10,4.1-15.2,5.7c-5.2,1.5-10.5,2.7-15.8,3.4
		c-2.7,0.3-5.4,0.5-8.1,0.5c-2.7,0-5.4-0.2-8.1-0.7C752.2,279.3,747.1,277,743.2,273.3z"/>
</g>
<path class="st3" d="M621.1,494.2c13.1,41.4-101,116.9-146.7,121.5l0,50.3l0-50.4c-45.8-4.6-159.8-80.1-146.7-121.5
	c-3.8,10.1-5.9,21.3-5.9,33.6c0,83.5,148.7,173,152.7,175.4l0,0c4-2.4,152.6-91.9,152.6-175.4C627,515.5,624.9,504.3,621.1,494.2z"
	/>
<path d="M474.4,703.4L474.4,703.4L474.4,703.4C474.4,703.4,474.4,703.4,474.4,703.4z"/>
<path class="st3" d="M469.1,402.7V271c0,0-25.9,2.1-23.5,42.4C448.7,367.2,469.1,402.7,469.1,402.7z"/>
<path class="st3" d="M474.4,228.6c-1.8,0-3.3,1.5-3.3,3.3v235.8c-26.3-27.9-62.2-34.1-92.2-23.5c-13.2-23-22.1-52.3-15.1-85.6
	c18.4-87.1-38.4-131.2-115.1-134.4c-25-1-81.1-3.9-117.2-67.7c0,0-59.2,98.1,18.9,143.2c0,0-22.6,12-48.4-24.4
	c0,0-39.8,91.4,23.1,113.4c0,0-16.3,14.7-37.1-8c0,0-24,92.9,62.1,98.6c0,0-16.2,20.4-31.8,11.4c0,0,39.1,81.1,127,28.2
	c0,0-14.6,25.4-38.4,39.4c0,0,43.9,39.8,114.5-27.7c0.2-0.2,0.4-0.4,0.6-0.6c0.3,8.5,2.1,17.1,5,25.6c0.1,0.2,0.1,0.3,0.2,0.5
	c0.2,0.5,0.3,0.9,0.5,1.4c0.1,0.4,0.3,0.7,0.4,1.1c0.1,0.3,0.2,0.5,0.3,0.8c0.2,0.5,0.4,1.1,0.7,1.6c0,0.1,0.1,0.1,0.1,0.2
	c27.5,67,125.9,129.9,143,140.4v51.6l-16.9-9.8l19.3,47.2l0.2-0.5V228.6C474.5,228.6,474.5,228.6,474.4,228.6z"/>
</svg>
