<?xml version="1.0" encoding="utf-8"?>
<!-- Generator: Adobe Illustrator 22.0.1, SVG Export Plug-In . SVG Version: 6.00 Build 0)  -->
<svg version="1.1" xmlns="http://www.w3.org/2000/svg" xmlns:xlink="http://www.w3.org/1999/xlink" x="0px" y="0px"
	 viewBox="0 0 948.5 948.5" style="enable-background:new 0 0 948.5 948.5;" xml:space="preserve">
<style type="text/css">
	.st0{fill:#124E8A;}
	.st1{fill:#F9D3CA;}
	.st2{fill:#614F43;}
	.st3{opacity:0.5;fill:#D5988C;}
	.st4{fill:#7C6965;}
	.st5{fill:#2B3D18;}
	.st6{opacity:0.1;}
	.st7{fill:#FFFFFF;}
	.st8{fill:#1D1D1B;}
	.st9{opacity:0.6;fill:#F5F5F5;}
</style>
<g id="Calque_2">
	<g>
		<rect class="st0" width="948.5" height="948.5"/>
	</g>
</g>
<g id="Calque_4">
	<g id="J5_1_">
		<path id="J5" class="st1" d="M508.4,209.7c-102.6,0-186.6,84-186.6,186.6v255.3c0,76.2,103,142.2,155.9,171H539
			c52.9-28.9,155.9-94.8,155.9-171V396.3C694.9,293.7,611,209.7,508.4,209.7z"/>
	</g>
	<g id="E1">
		<circle class="st2" cx="576.2" cy="462.2" r="28.3"/>
		<circle class="st2" cx="441.9" cy="462.2" r="28.3"/>
	</g>
	<g id="N3">
		<path class="st3" d="M507.9,433L482,556.3c-3.5,16.4,9.1,31.9,25.9,31.9h0h0c16.8,0,29.4-15.5,25.9-31.9L507.9,433z"/>
	</g>
</g>
<g id="Calque_7">
	<path class="st4" d="M644.6,268v382.1c0,0-23.5-61.6-136.6-61.6v-0.1c-113.2,0-136.7,61.6-136.7,61.6V268.7
		c-31,33.4-50.1,78.2-50.1,127.1V652c0,76.5,103.3,142.6,156.4,171.6h30.3v0.1h31c53.1-29,156.4-95.1,156.4-171.6V395.9
		C695.3,346.6,676,301.6,644.6,268z M553.3,730.4c-15-3-17.5-20-45.3-20.1v-0.1c-27.9,0-30.3,17.1-45.4,20.1
		c-15.1,3-59.1,3-59.1-51.2c0-53.6,102.1-36.5,104.4-36.1v0.1c0,0,104.5-18.1,104.5,36.1C612.4,733.4,568.3,733.4,553.3,730.4z"/>
</g>
<g id="Chapeau">
	<path class="st5" d="M690.7,330.1c3.3-52.2,59.5-93.4-29-174.4s-204,25.5-261,54s-168,103.2-163.5,156.6s13.7,78,51,77.4
		c37.9-0.6,31.5-42.4,33.5-44.1c41.4-35.2,236.2-69,236.2-69L690.7,330.1z"/>
	<path class="st6" d="M477.4,197.3c-51.6,80.3-246.5,122.3-236.6,197.6c0.3,1.7,0.6,3.4,1,5.1c0.5,2.2,1,4.4,1.5,6.5
		c6.6,25.7,18.9,37.7,45.1,37.3c37.9-0.6,31.5-42.4,33.5-44.1c41.4-35.2,236.2-69,236.2-69l132.7-0.5c2.6-40.6,37.2-74.6,10.7-125.9
		C671.2,149.2,530,115.3,477.4,197.3z"/>
	<ellipse class="st7" cx="588.9" cy="234" rx="45.2" ry="67.4"/>
	<polygon points="604.2,198.2 593.3,187.2 582.4,198.1 571.6,187.2 560.7,198.2 571.5,209 560.7,219.8 571.6,230.8 582.4,219.9 
		593.3,230.8 604.2,219.8 593.4,209 	"/>
	<polygon points="617.1,248.1 606.1,237.2 595.3,248 584.5,237.2 573.5,248.1 584.4,258.9 573.5,269.8 584.5,280.7 595.3,269.9 
		606.1,280.7 617.1,269.8 606.2,258.9 	"/>
	<path class="st8" d="M321.8,399.6c0,0,117.2-99,389.6-70C711.4,329.6,439,358.6,321.8,399.6z"/>
	<path class="st9" d="M573.5,334l-4.9,0.3c-1.6,0.1-3.2,0.3-4.8,0.4l-4.8,0.5l-4.7,0.5c-3.2,0.3-6.3,0.7-9.4,1.1
		c-3.1,0.4-6.3,0.8-9.4,1.2c-6.3,0.8-12.5,1.7-18.8,2.6l-12.7,1.9c9.2-1.6,18.4-3,27.6-4.5c12.1-1.9,24.2-3.7,36.4-5.3l-0.5-4.9
		c0,0,0,0-0.1,0v0c0,0,0,0,0,0c-10.6,1.1-21.1,2.3-31.6,3.7c-10.5,1.3-21.1,2.7-31.6,4.3c-10.5,1.6-21,3.3-31.5,5.4
		c-5.2,1.1-10.4,2.1-15.6,3.4c-1.9,0.5-3.8,1-5.7,1.5c-3.8,0.9-7.7,1.9-11.5,3l-4.5,1.4c-1.5,0.5-3,1-4.5,1.5
		c-1.5,0.6-3,1.1-4.5,1.8c-1.5,0.6-3,1.4-4.5,2.2l-18.1,9.7l20.5-3.4l37.3-6.2c8.9-1.5,17.9-2.9,26.8-4.4c-14,3-28,6.1-42,9.1
		l-21.1,4.7l-21,4.8l21.3-3.6l21.2-3.7c14.1-2.5,28.3-5,42.4-7.6c14.1-2.6,28.3-5.1,42.4-7.7l42.4-7.9L573.5,334z"/>
</g>
<g id="Calque_8">
	<path class="st6" d="M400.8,209.7c-57,28.5-168,103.2-163.5,156.6c1.6,19.4,3.9,35,7.9,46.9c0,0,0,0,0,0.1c0.2,0.7,0.5,1.4,0.7,2.1
		c0,0,0,0,0,0c0.7,2,1.5,3.9,2.4,5.7c0.1,0.1,0.1,0.3,0.2,0.4c0.8,1.6,1.7,3.2,2.6,4.7c0.1,0.2,0.2,0.4,0.3,0.5
		c0.3,0.4,0.6,0.9,0.9,1.3c0.1,0.1,0.2,0.3,0.3,0.4c0.5,0.7,1.1,1.5,1.6,2.1c0.2,0.2,0.3,0.4,0.5,0.6c0.3,0.3,0.6,0.7,0.9,1
		c0.2,0.2,0.4,0.4,0.6,0.7c0.5,0.5,0.9,0.9,1.4,1.4c0.3,0.2,0.5,0.5,0.8,0.7c0.3,0.2,0.6,0.5,0.9,0.7c0.3,0.2,0.6,0.4,0.9,0.7
		c0.3,0.2,0.6,0.4,0.9,0.6c0.5,0.4,1.1,0.7,1.6,1c0.3,0.2,0.6,0.3,0.8,0.5c0.4,0.2,0.8,0.4,1.2,0.6c0.3,0.1,0.6,0.3,0.9,0.4
		c0.5,0.3,1.1,0.5,1.7,0.7c0.3,0.1,0.6,0.2,0.8,0.3c0.5,0.2,1.1,0.4,1.6,0.6c0.3,0.1,0.6,0.2,0.8,0.3c0.6,0.2,1.1,0.3,1.7,0.5
		c0.2,0.1,0.4,0.1,0.6,0.2c0.8,0.2,1.6,0.4,2.4,0.5c0.3,0.1,0.5,0.1,0.8,0.1c0.6,0.1,1.3,0.2,2,0.3c0.2,0,0.5,0.1,0.7,0.1
		c0.9,0.1,1.8,0.2,2.7,0.3c0.2,0,0.4,0,0.6,0c0.8,0.1,1.6,0.1,2.4,0.1c0.3,0,0.5,0,0.8,0c1,0,2,0,3,0c8.3-0.1,14.5-2.2,19.1-5.5
		c1.3-0.9,2.5-1.9,3.6-3c0.5-0.5,1-1.1,1.5-1.7c0.2-0.3,0.5-0.6,0.7-0.9c0.7-0.9,1.3-1.8,1.9-2.7c0.9-1.6,1.7-3.2,2.4-4.9
		c0.3-0.7,0.5-1.3,0.7-2c0.8-2.3,1.4-4.7,1.8-7c0.2-1.3,0.4-2.6,0.6-3.8c0-0.3,0.1-0.6,0.1-0.9c0.1-0.9,0.2-1.8,0.3-2.6
		c0-0.3,0-0.6,0.1-0.8c0.3-4.5,0.3-7.7,0.8-8.3v252v0c0,16.7,4.9,32.9,13.2,48.3c2.9,5.5,6.3,10.9,10,16.2c2.2,3.2,4.6,6.3,7.1,9.4
		c0.8,1,1.7,2.1,2.5,3.1c2.5,3.1,5.2,6.1,7.9,9.1c1.8,2,3.7,3.9,5.6,5.9c1.9,1.9,3.8,3.9,5.8,5.8c4.9,4.7,10,9.3,15.2,13.8
		c3.1,2.7,6.3,5.3,9.5,7.8c2.1,1.7,4.3,3.4,6.4,5c6.5,5,13,9.7,19.5,14.1c2.2,1.5,4.3,2.9,6.4,4.4c17.1,11.4,33.5,21,46.7,28.2h30.2
		v0.1h0.5V146.6C465.7,166.9,427,196.6,400.8,209.7z"/>
</g>
</svg>
