<?xml version="1.0" encoding="utf-8"?>
<!-- Generator: Adobe Illustrator 22.0.0, SVG Export Plug-In . SVG Version: 6.00 Build 0)  -->
<svg version="1.1" xmlns="http://www.w3.org/2000/svg" xmlns:xlink="http://www.w3.org/1999/xlink" x="0px" y="0px"
	 viewBox="0 0 948.5 948.5" style="enable-background:new 0 0 948.5 948.5;" xml:space="preserve">
<style type="text/css">
	.st0{fill:#124E8A;}
	.st1{fill:#6F6F6E;}
	.st2{fill:#868686;}
	.st3{fill:#9C9B9B;}
	.st4{opacity:0.1;}
	.st5{fill:#B1B1B1;}
	.st6{opacity:0.5;}
	.st7{fill:#1D1D1B;}
	.st8{opacity:0.2;fill:#FFFFFF;}
	.st9{opacity:0.3;fill:#FFFFFF;}
</style>
<g id="Calque_2">
	<g>
		<rect class="st0" width="948.5" height="948.5"/>
	</g>
</g>
<g id="Calque_6">
</g>
<g id="Calque_5">
	
		<ellipse transform="matrix(0.1206 -0.9927 0.9927 0.1206 131.6776 1138.4183)" class="st1" cx="708.4" cy="494.9" rx="56.1" ry="19.3"/>
	<polygon points="389.1,427.8 474.8,466.4 560.5,427.8 691.1,424.1 683.7,500.4 478.8,488.8 474.8,477 470.9,488.8 265.9,500.4 
		258.6,424.1 	"/>
	<path class="st2" d="M474.8,64.3c22.7,0,0.7,63.4,50.7,103.7c50,40.3,158.6,122,176.9,187.9s-227.6,53.7-227.6,53.7V64.3z"/>
	<path class="st3" d="M711.8,492.9c0,0,17.4-152.9-8.4-168.3c-25.8-15.5-196.6-78.1-204.7-83c-8.1-4.9-8.7-21.6-23.9-21.6v246.4
		h200.8l-2.4,40.7l30.2,3L711.8,492.9z"/>
	
		<ellipse transform="matrix(0.9927 -0.1206 0.1206 0.9927 -57.9431 32.7053)" class="st1" cx="241.1" cy="494.9" rx="19.3" ry="56.1"/>
	
		<ellipse transform="matrix(0.9927 -0.1206 0.1206 0.9927 -57.9463 32.6517)" class="st4" cx="240.7" cy="494.9" rx="19.3" ry="56.1"/>
	<path class="st5" d="M474.8,477c2.3,0,237,15.9,237,15.9S686,651.6,669.5,679.1C653,706.5,502.2,845.3,474.8,845.3V477z"/>
	<path class="st2" d="M474.8,64.3c-22.7,0-0.7,63.4-50.7,103.7s-158.6,122-176.9,187.9s227.6,53.7,227.6,53.7V64.3z"/>
	<path class="st3" d="M237.8,492.9c0,0-17.4-152.9,8.4-168.3s196.6-78.1,204.7-83c8.1-4.9,8.7-21.6,23.9-21.6v246.4H273.9l2.4,40.7
		l-30.2,3L237.8,492.9z"/>
	<path class="st5" d="M474.8,477c-2.3,0-237,15.9-237,15.9s25.8,158.8,42.3,186.2s167.3,166.2,194.7,166.2V477z"/>
	<g class="st6">
		<path class="st7" d="M235.2,365c0.4-1.2,1.4-2,2.2-2.9c0.9-0.8,1.9-1.6,2.9-2.3c2-1.4,4.1-2.7,6.3-3.9c4.3-2.4,8.7-4.6,13.1-6.7
			c8.9-4.2,17.9-8.2,26.9-12c18.1-7.6,36.5-14.6,54.9-21.5c18.4-6.9,36.9-13.6,55.4-20.1c18.5-6.6,37.1-13,55.7-19.3l-0.3,0.3
			c1.1-2.3,2.4-4.4,3.9-6.5c1.5-2,3.2-3.9,5.1-5.6c1.9-1.7,4.1-3.1,6.4-4.1c2.4-1,4.9-1.5,7.5-1.6v1.2l-0.8,0v-1.2
			c2.6,0.1,5.1,0.6,7.5,1.6c2.3,1.1,4.5,2.5,6.4,4.1c1.9,1.7,3.6,3.6,5.1,5.6c1.5,2,2.8,4.2,3.9,6.5l-0.3-0.3
			c18.6,6.3,37.2,12.7,55.7,19.3c18.5,6.6,37,13.2,55.4,20.1c18.4,6.9,36.7,13.9,54.9,21.5c9.1,3.8,18.1,7.7,26.9,12
			c4.4,2.1,8.8,4.3,13.1,6.7c2.1,1.2,4.2,2.5,6.3,3.9c1,0.7,2,1.5,2.9,2.3c0.9,0.9,1.8,1.7,2.2,2.9c-0.4-1.2-1.4-2-2.2-2.9
			c-0.9-0.8-1.9-1.5-2.9-2.2c-2-1.4-4.1-2.6-6.3-3.8c-4.3-2.4-8.7-4.5-13.1-6.6c-8.9-4.2-17.9-8-27-11.7
			c-18.2-7.4-36.5-14.4-54.9-21.3c-18.4-6.8-36.9-13.4-55.4-19.9c-18.5-6.5-37.1-12.9-55.7-19.1l-0.2-0.1l-0.1-0.2
			c-1-2.2-2.4-4.3-3.8-6.3c-1.5-2-3.1-3.8-4.9-5.4c-1.8-1.6-3.9-2.9-6.1-3.9c-2.2-1-4.6-1.4-7-1.5l0-1.2l0.8,0v1.2
			c-2.4,0.1-4.8,0.5-7,1.5c-2.2,1-4.3,2.3-6.1,3.9c-1.8,1.6-3.5,3.5-4.9,5.4c-1.4,2-2.8,4.1-3.8,6.3l-0.1,0.2l-0.2,0.1
			c-18.6,6.2-37.2,12.6-55.7,19.1c-18.5,6.5-37,13.1-55.4,19.9c-18.4,6.8-36.8,13.8-54.9,21.3c-9.1,3.7-18.1,7.6-27,11.7
			c-4.4,2.1-8.9,4.2-13.1,6.6c-2.1,1.2-4.3,2.4-6.3,3.8c-1,0.7-2,1.4-2.9,2.2C236.6,363,235.6,363.9,235.2,365z"/>
	</g>
	<g class="st6">
		<polygon class="st7" points="252.1,512.8 307.8,508.9 363.5,505.2 474.8,497.9 586.2,505.2 641.9,508.9 697.6,512.8 641.9,509.5 
			586.2,506.1 474.8,499.2 363.5,506.1 307.8,509.5 		"/>
	</g>
	<path class="st8" d="M716.1,467.6c0,0,2.8-18.9,1.5-23.6c0,0,12,21.3,7.7,48s-9.8,28.9-10.4,20.7S718.5,473.3,716.1,467.6z"/>
</g>
<g id="Calque_10">
	<path d="M569.8,600.8c-0.3-8.7,5.6-15.3,13-14.8c7.2,0.5,13.1,7.7,13.4,16c0.3,8.3-5.2,15-12.4,14.8
		C576.4,616.7,570,609.5,569.8,600.8z"/>
	<path d="M660.4,605c-0.2-7.4,4-13.1,9.4-12.7c5.3,0.4,9.7,6.5,9.9,13.6c0.2,7.1-3.8,12.8-9.1,12.7
		C665.3,618.5,660.6,612.4,660.4,605z"/>
	<path d="M513.7,667c-0.3-9.5,6.8-17.5,15.6-17.7c8.6-0.3,15.6,6.9,15.8,16c0.3,9.1-6.3,17-14.8,17.7
		C521.5,683.7,514,676.6,513.7,667z"/>
	<path d="M620.5,661c-0.2-8,4.7-14.7,11-14.8c6.1-0.2,11.2,5.9,11.4,13.6c0.2,7.7-4.4,14.3-10.5,14.8
		C626.1,675.1,620.7,669,620.5,661z"/>
	<path d="M573.6,726.8c-0.3-8.7,5.6-16.6,12.9-17.5c7.2-1,13,5,13.3,13.4c0.3,8.3-5.2,16.1-12.4,17.4
		C580.2,741.4,573.9,735.5,573.6,726.8z"/>
	<path d="M385.4,600.8c0.3-8.7-5.6-15.3-13-14.8c-7.2,0.5-13.1,7.7-13.4,16c-0.3,8.3,5.2,15,12.4,14.8
		C378.8,616.7,385.1,609.5,385.4,600.8z"/>
	<path d="M294.8,605c0.2-7.4-4-13.1-9.4-12.7c-5.3,0.4-9.7,6.5-9.9,13.6c-0.2,7.1,3.8,12.8,9.1,12.7
		C289.9,618.5,294.5,612.4,294.8,605z"/>
	<path d="M441.4,667c0.3-9.5-6.8-17.5-15.6-17.7c-8.6-0.3-15.6,6.9-15.8,16c-0.3,9.1,6.3,17,14.8,17.7
		C433.6,683.7,441.2,676.6,441.4,667z"/>
	<path d="M334.7,661c0.2-8-4.7-14.7-11-14.8c-6.1-0.2-11.2,5.9-11.4,13.6c-0.2,7.7,4.4,14.3,10.5,14.8
		C329.1,675.1,334.4,669,334.7,661z"/>
	<path d="M381.5,726.8c0.3-8.7-5.6-16.6-12.9-17.5c-7.2-1-13,5-13.3,13.4c-0.3,8.3,5.2,16.1,12.4,17.4
		C375,741.4,381.3,735.5,381.5,726.8z"/>
</g>
<g id="Calque_8">
	<path class="st9" d="M474.8,69.1L474.8,69.1L474.8,69.1c4.5,0,7.5,16.2,9.6,37.9c0,0,0,0,0,0c2.4,35.3,32.6,57,67.4,92.4
		c34.8,35.4-4.9,22-27.1-2.7c-22.3-24.7-37.3-48.5-36.8-25.9c0,0,0,0,0,0c0.7,26.1,0.8,47,0.8,47c-8.8-12.2-13.8-10.1-13.8-10.1l0,0
		v0c0,0-4.9-2.1-13.8,10.1C461.1,217.7,461.2,69.1,474.8,69.1z"/>
	<path class="st9" d="M459.6,245.1c0,6.7,3.4,212,15.2,212l0.1-3.2v3.2c8.2,0,12.4-98.2,14.1-161c0.2-0.5,0.6-1.8,1.1-4.1
		c4.9-20.6,222.9,71.3,222.9,71.3c-11.3-13.3-124-54-124-54s-91.6-24.8-98.9-64.2c0-6.7-6.4-19.7-15.2-19.7v1l-0.1-1
		C466,225.4,459.6,238.4,459.6,245.1z"/>
	<path class="st9" d="M450.4,500.1l24.3-17.7v-0.1l0.1,0l0.1,0v0.1l24.3,17.7c0,0,1.8,338-24.3,338h-0.1
		C448.6,838.1,450.4,500.1,450.4,500.1z"/>
</g>
<g id="Calque_7">
	<path class="st4" d="M246.3,324.5c4.1-2.5,12-6.2,22.3-10.6c39-55.6,115.8-113.9,155.6-145.9c50-40.3,28.1-103.7,50.7-103.7V220
		v189.5v56.9V477v368.3c-27.3,0-178.2-138.8-194.7-166.2s-42.3-186.2-42.3-186.2S220.5,340,246.3,324.5z"/>
</g>
</svg>
