<svg xmlns="http://www.w3.org/2000/svg" viewBox="0 0 945.99 948.55"><title>loupnoirV2.0</title><g id="Calque_7" data-name="Calque 7"><rect width="945.99" height="948.55" style="fill:#8b181a"/></g><g id="Calque_3" data-name="Calque 3"><path d="M306.23,184.59s-18.54,28.95-15.71,47.28c0,0,21.54-18.11,29.85-23.64S306.23,184.59,306.23,184.59Z" transform="translate(0 -0.02)" style="fill:#fff"/><path d="M268.7,268.87S291,249.7,298.52,246.7c0,0-14.4,35.72-12.37,39.28S267.52,275,267.52,275Z" transform="translate(0 -0.02)" style="fill:#fff"/><path d="M573.85,241.87s46-32,86,0,121,41,121,41-60,53-131,53S573.85,241.87,573.85,241.87Z" transform="translate(0 -0.02)" style="fill:#1e1e1e"/><path d="M573.85,241.87s46-32,86,0,121,41,121,41-60,53-131,53S573.85,241.87,573.85,241.87Z" transform="translate(0 -0.02)" style="opacity:0.30000000000000004"/><path d="M341.85,69.87s-49,13-31,77c0,0,51.37-.39,76.19-25.19C363.84,98.32,343.34,74.84,341.85,69.87Z" transform="translate(0 -0.02)" style="fill:#141414"/><path d="M867.85,607.87s-87,11-126-29-55-78-56-121-5-53-5-53,73,34,103,17c0,0-54-36-66-57s-30-80-89-84c-45-107-156-100-180-108-12.07-4-38.32-27.54-61.81-51.19-24.82,24.8-76.19,25.19-76.19,25.19s-10.94,27-4,39,58,87,25,102-65-6-73-43c0,0-28,29-12,66s88,51,116,81,30,117-56,153c0,0,18,15,33,16,0,0-23,10-31,10,0,0,60,16,78-6,0,0,15.13,150-144.94,233,0,0,18.94,41,108.94,19,0,0-7,58-70,77,0,0,45,78,181-53,0,0,11,54,3,68,0,0,103-84,109-119l61,39,27-96s66,13,128-4c0,0-34-24-57-62C732.85,666.87,842.85,650.87,867.85,607.87Z" transform="translate(0 -0.02)" style="fill:#1e1e1e"/><path d="M573.85,419.87c-64-67-150-138.11-150-138.11s9.42-58.66-13.71-137.82c-7.61-7-15.5-14.61-23.1-22.26-24.82,24.8-76.19,25.19-76.19,25.19s-10.94,27-4,39,58,87,25,102-65-6-73-43c0,0-28,29-12,66s88,51,116,81,30,117-56,153c0,0,18,15,33,16,0,0-23,10-31,10,0,0,56.1,15,76.08-4a20.7,20.7,0,0,0,1.92-2c16.75-16.25,31-15,31-15,28,47,2,68,2,68,50-8,95.51-65,95.51-65,14.5,4,22.49,86,22.49,86,29-17,36-136,36-136,9,0,62,47,62,47S637.85,486.87,573.85,419.87Z" transform="translate(0 -0.02)" style="fill:#fff;opacity:0.1"/><path d="M462.35,220.37s57,19.5,80,69.5l-61-19.5S465.35,252.37,462.35,220.37Z" transform="translate(0 -0.02)" style="fill:#fff"/><path d="M633.35,303.87s37.76,50.8,44,83.5c0,0,32.5,27,92,31.5,0,0-54-27-68-57.5S633.35,303.87,633.35,303.87Z" transform="translate(0 -0.02)" style="fill:#fff;opacity:0.1"/></g><g id="Calque_3_-_copie" data-name="Calque 3 - copie"><path d="M701.35,361.39c-14-30.5-68-57.5-68-57.5s7,9.44,15.5,22.8h0c23.84,5,38.17,39.2,63.34,58.7s57.16,33.5,57.16,33.5S715.35,391.89,701.35,361.39Z" transform="translate(0 -0.02)" style="opacity:0.2"/><path d="M712.52,671.54a201.28,201.28,0,0,1,20.33-4.67s110-16,135-59c-34.66,21-156,91.33-182-137.33l.79.29q-.63-6.4-.79-13c-1-43-5-53-5-53s73,34,103,17c0,0-55.75-24.75-72-53.75s-51.75-62-79.75-67.25l1.25,3-90.16-14L481.35,270.7s-13.66-15-19-49.66c0,0-124.5-47.84-120.5-151.17,0,0-49,13-31,77,0,0-10.21,25.19-4.62,37.72h0c5.13,8.72,1.87,12.53,1.87,12.53s-13,15-17.58,34.75c0,0,21.54-18.11,29.85-23.64,15.54,27.1,35.19,68.86,11.48,79.64-16.43,7.47-32.6,6-45.7-1.9-2-3.59,12.37-39.27,12.37-39.27s-21.2,34.9-29.81,22.16c-.42-.62-.8-1.25-1.17-1.88a71.58,71.58,0,0,1-8.69-22.11s-28,29-12,66,88,51,116,81a58.64,58.64,0,0,1,11.22,18.42c22.21,46.41,26.28,132.08-67.22,134.58,0,0,18,15,33,16,0,0,8.92,4.17,2.67,7.65s-33.45,2.41-33.45,2.41l.15,0,.13,0,.16,0,.18.05.17,0,.24.06.19,0,.28.07.22.06.32.07.25.06.4.09.22.06.49.11.21,0,.51.12.26.06.55.12.26.06.6.13.28.06.63.13.31.07.67.13.31.07.73.14.29.06.79.16.29,0,.84.16.28.05.88.17.29.05.93.17.28,0,1,.16.27,0,1,.17.23,0,1.1.17.2,0,1.17.18.13,0,1.28.19h0a163.21,163.21,0,0,0,18.17,1.62h.09l1.45,0h.17l1.4,0h1.84c.44,0,.89,0,1.33,0h.28l1.31,0,.3,0,1.29-.06.32,0,1.25-.08.34,0,1.24-.1.34,0,1.23-.13.34,0,1.21-.14.34,0,1.2-.17.33-.06,1.18-.19.33-.06,1.17-.23.31-.06,1.17-.26.28-.07,1.17-.28.26-.07c.39-.11.78-.21,1.16-.33l.23-.06,1.16-.37.19-.06c.39-.13.79-.26,1.18-.41l.11,0c.41-.15.82-.3,1.21-.47h0a28.71,28.71,0,0,0,9-5.58h0c.34-.31.66-.63,1-1l0,0c.32-.35.63-.7.92-1.06,0,0,2,20-3.21,49.4-11.54,94.39-74.12,186.6-141.73,183.6,0,0,18.94,41,108.94,19,.67,20.33.34,82.67-70,77,0,0,45,78,181-53,0,0,11,54,3,68,0,0,103-84,109-119l61,39,27-96s66,13,128-4C753.52,726.87,712.52,671.54,712.52,671.54ZM419.85,617.87s26-21-2-68l36-15S452.35,600.87,419.85,617.87Zm118,21s30.56-97.5,17-131.5,19-4.5,19-4.5S566.85,621.87,537.85,638.87Zm98-89c-41-87.48-173.45-235.13-173.5-235.18,30.81,26.94,74.78,66.73,111.5,105.18C637.85,486.87,635.85,549.87,635.85,549.87Z" transform="translate(0 -0.02)" style="opacity:0.2"/><path d="M508.35,252.39a308.06,308.06,0,0,1,34,37.48c-23-50-80-69.5-80-69.5,0,.24,0,.47.08.7C463.92,221.76,487.7,232.87,508.35,252.39Z" transform="translate(0 -0.02)" style="opacity:0.2"/></g></svg>