<svg xmlns="http://www.w3.org/2000/svg" viewBox="0 0 948.55 948.55"><title>white_wolf</title><g id="Calque_2" data-name="Calque 2"><rect width="948.55" height="948.55" style="fill:#7a3b63"/></g><g id="Calque_5" data-name="Calque 5"><path d="M500.24,207.12s42-92.5,77.5-106c0,0,1.5,153,13,164.5S500.24,207.12,500.24,207.12Z" transform="translate(0 0)" style="fill:#ececec"/><path d="M571.53,119.5S538.74,211.28,542.07,228s35,18.33,35,18.33Z" transform="translate(0 0)" style="fill:#232323"/><path d="M500.24,207.12s42-92.5,77.5-106c0,0,1.5,153,13,164.5S500.24,207.12,500.24,207.12Z" transform="translate(0 0)" style="opacity:0.2"/></g><g id="Calque_4" data-name="Calque 4"><path d="M754.9,543.77c-28,.49-142-10.49-156.66-8.25s-33.67-6.9-31.33-16.9,91,11.66,140.33,16.33,111-21,111-21-20.67-24-28-36-.67-44.67,22.67-38c-10-16.67-77.34-38.67-113.34-46.67S694.91,326,634.91,270s-122-58-122-58L499.57,90.62C450.91,126,403.57,226,403.57,226c-99.33,8.67-163.33,156-163.33,156-78,33.33-148,134.67-148,134.67,16.67-8.67,45.33-8,31.51,9.33s17.82,8,5.16,22.67,2.66,24-2.67,36,18,12,10.67,18,20,18.66,20,18.66l5.33,6.67c5.33,6.67-2,32.67,2.67,44.67s33.33,24.66,37.33,44,17.33,10.66,24.67,32,20.66,15.33,26,28,31.33,20.66,39.33,17.33,31.33,11.33,38.67,11.33,40.66,28.67,59.33,36S388.91,872,461.57,846s80.67-152.67,76.67-180,22-76.67,22-76.67c10.67,0,63.33-17.33,69.7-20s40.3-2,80.3-4c30.68-1.53,41.35-15.21,44.66-21.51Z" transform="translate(0 0)" style="fill:#ececec"/><path d="M643.57,369.28s-54-52.66-120-32.66c0,0,48,49.33,63.34,50S643.57,369.28,643.57,369.28Z" transform="translate(0 0)" style="fill:#e6313b"/><path d="M854.91,464c-10-15.33-42-24-42-24-23.34-6.67-30,26-22.67,38s28,36,28,36S864.91,479.28,854.91,464Z" transform="translate(0 0)" style="fill:#232323"/><path d="M707.24,535c-49.33-4.67-138-26.33-140.33-16.33s16.66,19.13,31.33,16.9,128.65,8.74,156.66,8.25h0a17.67,17.67,0,0,0,1.34-3.15c24.67-.67,62-26.67,62-26.67S756.57,539.62,707.24,535Z" transform="translate(0 0)" style="fill:#232323"/><path d="M442.24,268.28s34.33-132,53-155.33c0,0-8.67,86.67,5,116.33Z" transform="translate(0 0)" style="fill:#232323"/><path d="M495.24,113c-18.67,23.33-53,155.33-53,155.33l58-39C477.36,228.66,460.78,253.91,495.24,113Z" transform="translate(0 0)" style="opacity:0.6000000000000001"/><g style="opacity:0.5"><path d="M643.57,369.28s-54-52.66-120-32.66C560.63,337.09,586.24,332.56,643.57,369.28Z" transform="translate(0 0)" style="opacity:0.05"/><polygon points="643.57 369.29 643.57 369.29 643.57 369.29 643.57 369.29" style="opacity:0.05"/></g></g><g id="Calque_6" data-name="Calque 6"><path d="M598.24,535.52c-14.67,2.23-33.67-6.9-31.33-16.9-41.84-6.5-73.34,86-73.34,86-10-.34-35.66,7.33-35.66,7.33,0-3.67,7.66-8.67,7.66-8.67-9.33-4.33-49-5.66-49-5.66.34-10,13.67-33.34,13.67-33.34-25.67-9.33-76-7-76-7-.67-17.33,7.67-36.66,7.67-36.66-11-7.34-52.34-13.67-52.34-13.67,0-13,28.67-45.67,28.67-45.67-7.33-3.66-43-7.66-43-7.66,21.33-39,108-73,108-73-111.33,2.33-158.33,96-158.33,96,15-7.67,46,7,46,7-29.67,35-20,70.66-20,70.66,35.33-12.66,51.33,0,51.33,0-17.33,16.34-3,40.34-3,40.34,38-12.67,64.33-2.34,64.33-2.34-8.33,15-10.66,47.34-5,39.67s51.34-6.67,32.67,2.67-20.33,29.66-20.33,29.66c23-11.66,30-3,11.66,4.67s-36,33-36,33c15.34-11,32.34-6.67,32.34-6.67-28.71,14.93-60.16,65.23-81.74,105.37,5.75,2.47,10.92,4.63,13.74,4.63,7.33,0,40.66,28.67,59.33,36S388.91,872,461.57,846s80.67-152.67,76.67-180,22-76.67,22-76.67c10.67,0,63.33-17.33,69.7-20s40.3-2,80.3-4c30.68-1.53,41.35-15.21,44.66-21.51h0C726.89,544.26,612.91,533.28,598.24,535.52Z" transform="translate(0 0)" style="opacity:0.05"/><path d="M854.91,464c-29.17,13.17-64.67-13.33-64.67-13.33s-95.5-17.5-122-43.5-24.67-37.84-24.67-37.84-41.33,18-56.66,17.34-63.34-50-63.34-50-109.83-31.5-104.83-64.5,41.17-143.5,80.83-181.5c-39.1,28.38-77.33,98.5-90.85,125-1.37,3.15-3.07,6.59-5.15,10.36-28.66,52-47.33,74.67-22.66,92.67S424.24,370,424.24,370s38.68,9.13-21,10.67c-71.33,1.83-128.33,41.33-158.33,96-25.27,46-84.67,115.33-80,196,4.66,12,33.33,24.66,37.33,44s17.33,10.66,24.67,32,20.66,15.33,26,28,31.33,20.66,39.33,17.33,31.33,11.33,38.67,11.33,40.66,28.67,59.33,36S388.91,872,461.57,846s80.67-152.67,76.67-180,22-76.67,22-76.67c10.67,0,63.33-17.33,69.7-20s40.3-2,80.3-4c30.68-1.53,41.35-15.21,44.66-21.51h0c-28,.49-142-10.49-156.66-8.25s-33.67-6.9-31.33-16.9,91,11.66,140.33,16.33,111-21,111-21S864.91,479.28,854.91,464Z" transform="translate(0 0)" style="opacity:0.05"/><path d="M512.91,212s2.58,11.67,3.33,11.92,31.12-5.19,31.12-5.19A162.46,162.46,0,0,0,512.91,212Z" transform="translate(0 0)" style="opacity:0.05"/></g></svg>