<?xml version="1.0" encoding="utf-8"?>
<!-- Generator: Adobe Illustrator 22.0.0, SVG Export Plug-In . SVG Version: 6.00 Build 0)  -->
<svg version="1.1" xmlns="http://www.w3.org/2000/svg" xmlns:xlink="http://www.w3.org/1999/xlink" x="0px" y="0px"
	 viewBox="0 0 946 948.6" style="enable-background:new 0 0 946 948.6;" xml:space="preserve">
<style type="text/css">
	.st0{fill:#8B181A;}
	.st1{fill:#B4B4B4;}
	.st2{fill:#FFFFFF;}
	.st3{fill:#999999;}
	.st4{opacity:0.3;}
	.st5{fill:none;}
	.st6{fill:#384445;}
	.st7{opacity:0.2;}
	.st8{opacity:0.5;}
	.st9{opacity:0.5;fill:#FFFFFF;}
	.st10{opacity:0.1;}
</style>
<g id="Calque_7">
	<g>
		<rect x="-2.6" y="0" class="st0" width="948.5" height="948.5"/>
	</g>
</g>
<g id="Calque_8">
	<path class="st1" d="M839.4,485.9c-14.8-16.9-75-25.6-75-25.6c59-23.8,84.6-71.7,84.6-71.7s-36.6,18.9-112.6,20.7
		c-3.6,0.3-7.8-0.4-12.6-1.8c-43.2-13.2-42.1-68.8-57.4-111.2c-17-47-97-61-97-61c47-33,42-118,42-118s-92,92-163,100
		c-112,15-173.5,77.9-177,104c-2.6,19.3-12.6,35.8-33.6,45.6c-16.2,7.6-53.5,20.2-68.4,19.4c-2.9-0.1-5.9-0.7-9.1-0.7
		c7.5,20,7.5,54.4-14.4,79.5c14.8,10.6,32.1,17.4,51.2,14.8c18.6-3.7,25.4-5.3,43-9.1c76.4-16.9,119.5-25.5,120.3,29.6
		c0.7,43.4-30,52.3-57.5,52.6c-12.1,0.8-20.1-1.5-36.7-2.9c-22.9-1.3-34.8,13.3-34.8,13.3s42,64,116,31c125-58,86,24,57,60
		c-19,24.7-31.8,48.6-40.3,70.3c-24.1,61.8-13.7,106.7-13.7,106.7c2.7-4.7,6-10,9.8-15.7c16.1-19.9,47.6-51,61.4-65.9
		c-6.3,21.8,5.3,77.6,5.3,77.6c-6-39.2,51-82.3,51-82.3c28.5-13.5,54,40.5,54,40.5c10.5-46.5,0-90,0-90c72-25.5,132.5,8.4,132.5,8.4
		c-10-34.5-9-95.9-9-95.9c70.5-46.5,90,0,90,0c-7.8-39-20-49-32-53.5C680.5,542.2,839.4,485.9,839.4,485.9z M335.4,321.3
		c39-18,70.5-15.5,70.5-15.5s-2.5,48.5-57.5,60.5s-73.5,0-73.5,0C276.4,365.8,296.4,339.3,335.4,321.3z"/>
</g>
<g id="Calque_4">
	<path class="st2" d="M263.3,371.7l54.6-89.4l131.3,11c0,0-97.1,110-111.5,103.3S263.3,371.7,263.3,371.7z"/>
	<path class="st3" d="M381.4,245.3c37.5-45,51.5-99,48.5-105.5c0,0,48.5,34.5,25.5,87S381.4,245.3,381.4,245.3z"/>
	<path class="st4" d="M381.4,245.3c37.5-45,51.5-99,48.5-105.5c0,0,48.5,34.5,25.5,87S381.4,245.3,381.4,245.3z"/>
	<path class="st3" d="M839.4,485.9c-14.8-16.9-75-25.6-75-25.6c59-23.8,84.6-71.7,84.6-71.7s-36.6,18.9-112.6,20.7
		c-3.6,0.3-7.8-0.4-12.6-1.8c-43.2-13.2-42.1-68.8-57.4-111.2c-17-47-97-61-97-61c47-33,42-118,42-118s-92,92-163,100
		c-112,15-173.5,77.9-177,104c-2.6,19.3-12.6,35.8-33.6,45.6c36.4,38.4,107.4,66,136.5,56c38-13,139.5-27.5,155,10.5
		c0,0-35.5,11-35.5,24.5c0,0,30.5,42.5,35.5,62.5c0,0-37.5-2.5-45.5,10c0,0,15,60.5,2.5,82c0,0-0.3-17.5-14.6-15.5
		c0,0,12.6,33.5-13.9,74c0,0-0.5-27-7.5-27.5c0,0-13.3,59.5-44.4,72.5c0,0,6.9-31-3.6-36.5c0,0-8.4,23.8-38.2,45.3
		c-24.1,61.8-13.7,106.7-13.7,106.7c2.7-4.7,6-10,9.8-15.7c16.1-19.9,47.6-51,61.4-65.9c-6.3,21.8,5.3,77.6,5.3,77.6
		c-6-39.2,51-82.3,51-82.3c28.5-13.5,54,40.5,54,40.5c10.5-46.5,0-90,0-90c72-25.5,132.5,8.4,132.5,8.4c-10-34.5-9-95.9-9-95.9
		c70.5-46.5,90,0,90,0c-7.8-39-20-49-32-53.5C680.5,542.2,839.4,485.9,839.4,485.9z M335.4,321.3c39-18,70.5-15.5,70.5-15.5
		s-2.5,48.5-57.5,60.5s-73.5,0-73.5,0C276.4,365.8,296.4,339.3,335.4,321.3z"/>
	<path class="st5" d="M335.4,321.3c-39,18-59,44.5-60.5,45c0,0,18.5,12,73.5,0s57.5-60.5,57.5-60.5S374.4,303.3,335.4,321.3z"/>
	<path class="st6" d="M160.4,385.6L160.4,385.6c-34,0.2-43.6,2.5-43.6,2.5s-2.5,54.2,29.2,76.9C167.8,440,167.9,405.6,160.4,385.6z"
		/>
	<path class="st5" d="M335.4,321.3c-39,18-59,44.5-60.5,45c0,0,18.5,12,73.5,0s57.5-60.5,57.5-60.5S374.4,303.3,335.4,321.3z"/>
	<path class="st2" d="M302.9,552.9c-12.1-11.2-37.1-36-39-51.1c0,0-2.6,27.9,2.3,48.2C282.9,551.4,290.8,553.7,302.9,552.9z"/>
	<path class="st1" d="M529.4,433.4c-15.5-38-117-23.5-155-10.5c-29.1,10-100.1-17.6-136.5-56c-16.2,7.6-53.5,20.2-68.4,19.4
		c-2.9-0.1-5.9-0.7-9.1-0.7c7.5,20,7.5,54.4-14.4,79.5c14.8,10.6,32.1,17.4,51.2,14.8c18.6-3.7,25.4-5.3,43-9.1
		c76.4-16.9,119.5-25.5,120.3,29.6c0.7,43.4-30,52.3-57.5,52.6c-12.1,0.8-20.1-1.5-36.7-2.9c-22.9-1.3-34.8,13.3-34.8,13.3
		s42,64,116,31c125-58,86,24,57,60c-19,24.7-31.8,48.6-40.3,70.3c29.7-21.4,38.2-45.3,38.2-45.3c10.5,5.5,3.6,36.5,3.6,36.5
		c31.1-13,44.4-72.5,44.4-72.5c7,0.5,7.5,27.5,7.5,27.5c26.5-40.5,13.9-74,13.9-74c14.4-2,14.6,15.5,14.6,15.5
		c12.5-21.5-2.5-82-2.5-82c8-12.5,45.5-10,45.5-10c-5-20-35.5-62.5-35.5-62.5C493.9,444.4,529.4,433.4,529.4,433.4z"/>
	<path class="st2" d="M254.4,526.8c0,0-13.4-32.1-14.3-56.1c-17.6,3.8-24.4,5.4-43,9.1C209,497,233.4,527.9,254.4,526.8z"/>
	<path class="st1" d="M499.4,222.1c-2,0.1,89.5-61.5,101-83.8c0,0-4.5,75.2-46,93C554.4,231.4,516.9,220.9,499.4,222.1z"/>
	<path class="st4" d="M499.4,222.1c7.8-0.6,19.6,1.2,30.3,3.4c26-36.6,70.4-85.3,68.3-68.5v0c2-11,2.4-18.6,2.4-18.6
		C588.9,160.6,497.3,222.3,499.4,222.1z"/>
</g>
<g id="Calque_6">
	<path class="st7" d="M205.9,448.6c-27.3,7.3-70.7-12.7-89.1-60.4c0,0-2.5,54.2,29.2,76.9c14.8,10.6,32.1,17.4,51.2,14.8
		c1.2,1.8,2.6,3.7,4,5.7c11.6-2.7,19.3-5.8,20.7-3.6c2,3.2,20,38.7,32.6,44.9c0,0-13.4-32.1-14.3-56.1
		c55.4-12.2,93.2-20.1,110.2-2.5c-0.3-1-0.7-2-1.1-3.1C338.5,438.6,233.2,441.2,205.9,448.6z"/>
	<path class="st5" d="M263.9,502.4c-0.2,0.9-0.3,2-0.2,3.1C263.8,504,263.8,503,263.9,502.4C263.9,502.4,263.9,502.4,263.9,502.4z"
		/>
	<path class="st8" d="M263.9,501.8c0,0,0,0.2,0,0.6c0-0.2,0-0.3,0.1-0.5C264,501.9,263.9,501.9,263.9,501.8z"/>
	<path class="st5" d="M429.9,139.8c0,0,0.1,1,0.4,2.7C430.3,141.3,430.2,140.4,429.9,139.8z"/>
	<path class="st7" d="M429.9,220.2c0,0,26.5-3.4,29.6-4.8c12.1-46.1-29.5-75.6-29.5-75.6c0.3,0.6,0.4,1.5,0.4,2.7
		C432.1,155.1,438.9,208.1,429.9,220.2z"/>
	<path class="st7" d="M302.9,552.9c-12.1-11.2-36.9-35.9-38.9-51c0,0.2,0,0.3-0.1,0.5c0,0.6-0.1,1.6-0.2,3.1
		c0.4,13.6,16.9,39.8,16.9,41.8c0,1.3-7,0.4-15-0.1c0.2,1,0.4,1.9,0.6,2.8C273.7,550.5,297.4,554.3,302.9,552.9z"/>
	<path class="st9" d="M408.6,648.9c0.7-0.9,1.4-1.9,2.1-2.9C410,647,409.3,648,408.6,648.9z"/>
	<path class="st9" d="M410.7,646c0.7-1,1.4-2,2.1-3C412.1,644,411.4,645,410.7,646z"/>
	<path class="st9" d="M404.4,654.3c0.7-0.8,1.4-1.7,2.1-2.6C405.8,652.6,405.1,653.5,404.4,654.3z"/>
	<path class="st9" d="M406.5,651.7c0.7-0.9,1.4-1.8,2.1-2.7C407.9,649.9,407.2,650.8,406.5,651.7z"/>
	<path class="st9" d="M414.8,639.9c0.7-1,1.4-2.1,2-3.2C416.2,637.8,415.5,638.9,414.8,639.9z"/>
	<path class="st9" d="M412.8,643c0.7-1,1.4-2,2.1-3.1C414.2,641,413.5,642,412.8,643z"/>
	<path class="st7" d="M839.4,485.9c-14.8-16.9-75-25.6-75-25.6c59-23.8,84.6-71.7,84.6-71.7s-36.6,18.9-112.6,20.7
		c-3.6,0.3-7.8-0.4-12.6-1.8c-43.2-13.2-42.1-68.8-57.4-111.2c-17-47-97-61-97-61c47-33,42-118,42-118
		c-9.3,25.4-67.1,84.6-110.1,104.6c0,0,149.2,64.7,145.8,117.7c-3.3,53,49.3,86.6,86.7,85.8s64-8.8,64-8.8s-36.7,31.8-62,40.9
		c0,0,68.7,26.4,78,26.4c0,0-124,39-128.7,48.7c-4.7,9.7,5.7,23.7,24.3,30.3c18.7,6.7,22.3,19.7,22.3,19.7s-50.7-18.3-86.7,19
		c0,0-2.3,58,1.3,73c0,0-94.7-67.7-110.7-54.7s-56,11-46-5.5s14.5-70,4-81s47.6-0.6,49.6-6.6s-34.6-66.7-42.1-69.3
		c-5.1-1.8,4.3-12.2,13.8-18.6c-9.9,4.5-21.3,11.3-21.3,19c0,0,30.5,42.5,35.5,62.5c0,0-37.5-2.5-45.5,10c0,0,15,60.5,2.5,82
		c0,0-0.3-17.5-14.6-15.5c0,0,12.6,33.5-13.9,74c0,0-0.5-27-7.5-27.5c0,0-13.3,59.5-44.4,72.5c0,0,6.9-31-3.6-36.5
		c0,0-8.4,23.8-38.2,45.3c-24.1,61.8-13.7,106.7-13.7,106.7c2.7-4.7,6-10,9.8-15.7c16.1-19.9,47.6-51,61.4-65.9
		c-6.3,21.8,5.3,77.6,5.3,77.6c-6-39.2,51-82.3,51-82.3c28.5-13.5,54,40.5,54,40.5c10.5-46.5,0-90,0-90c72-25.5,132.5,8.4,132.5,8.4
		c-10-34.5-9-95.9-9-95.9c70.5-46.5,90,0,90,0c-7.8-39-20-49-32-53.5C680.5,542.2,839.4,485.9,839.4,485.9z"/>
	<path class="st9" d="M418.9,633.5c5.9-9.8,10.9-20.3,13.4-29.7C429.7,613.2,424.7,623.7,418.9,633.5z"/>
	<path class="st9" d="M416.9,636.8c0.7-1.1,1.3-2.1,2-3.2C418.2,634.6,417.5,635.7,416.9,636.8z"/>
	<path class="st1" d="M408.6,648.9C408.6,648.9,408.6,648.9,408.6,648.9C408.6,648.9,408.6,648.9,408.6,648.9z"/>
	<path class="st1" d="M406.5,651.7C406.5,651.7,406.5,651.7,406.5,651.7C406.5,651.7,406.5,651.7,406.5,651.7z"/>
	<path class="st1" d="M414.8,639.9C414.8,639.9,414.8,639.9,414.8,639.9C414.8,639.9,414.8,639.9,414.8,639.9z"/>
	<path class="st1" d="M410.7,646C410.7,646,410.7,646,410.7,646C410.7,646,410.7,646,410.7,646z"/>
	<path class="st1" d="M418.9,633.5C418.9,633.5,418.9,633.5,418.9,633.5C418.9,633.5,418.9,633.5,418.9,633.5z"/>
	<path class="st1" d="M416.9,636.8C416.9,636.8,416.9,636.8,416.9,636.8C416.9,636.8,416.9,636.8,416.9,636.8z"/>
	<path class="st1" d="M412.8,643C412.8,643,412.8,643,412.8,643C412.8,643,412.8,643,412.8,643z"/>
	<path class="st7" d="M484,530.8l-1.3,0.3c0.1-0.1,0.2-0.2,0.2-0.2s-71.5-7-103.5,12s-74,22.2-94.7,18.5
		c-17.2-3.1-26.9-0.1-42.4,14.6c16.9,16.7,53.1,41.5,105.2,18.3c77.7-36.1,92-18,84.8,9.5c0,0,0,0,0,0c-2.5,9.4-7.5,19.9-13.4,29.7
		c0,0,0,0,0,0c-0.6,1.1-1.3,2.2-2,3.2c0,0,0,0,0,0c-0.7,1.1-1.3,2.1-2,3.2c0,0,0,0,0,0c-0.7,1-1.4,2.1-2.1,3.1c0,0,0,0,0,0
		c-0.7,1-1.4,2-2.1,3c0,0,0,0,0,0c-0.7,1-1.4,1.9-2.1,2.9c0,0,0,0,0,0c-0.7,0.9-1.4,1.9-2.1,2.7c0,0,0,0,0,0
		c-0.7,0.9-1.4,1.8-2.1,2.6c-19,24.7-31.8,48.6-40.3,70.3c29.7-21.4,38.2-45.3,38.2-45.3c10.5,5.5,3.6,36.5,3.6,36.5
		c31.1-13,44.4-72.5,44.4-72.5c7,0.5,7.5,27.5,7.5,27.5c26.5-40.5,13.9-74,13.9-74c14.4-2,14.6,15.5,14.6,15.5
		C498.3,591.9,485.2,536.1,484,530.8z"/>
	<path class="st1" d="M466.6,534.7L461,536C461.1,536,463.5,535.5,466.6,534.7z"/>
	<path class="st1" d="M482.6,531.1l1.3-0.3c-0.1-0.3-0.1-0.4-0.1-0.4l-1,0.5C482.9,530.9,482.8,531,482.6,531.1z"/>
	<path class="st5" d="M274.9,366.3c0.1,0,0.2-0.1,0.3-0.3C275.1,366.2,274.9,366.3,274.9,366.3z"/>
	<path class="st10" d="M335.4,321.3c-37.2,17.2-57.1,42-60.2,44.7c3.6-2.6,36.2-26.4,62.4-39.4c27.7-13.8,63.5-16.8,63.5-16.8
		s1.1,10.9-3.6,22.2c7.8-13.8,8.4-26.3,8.4-26.3S374.4,303.3,335.4,321.3z"/>
</g>
</svg>
