<svg xmlns="http://www.w3.org/2000/svg" viewBox="0 0 948.55 948.55"><title>necromencer</title><g id="Calque_2" data-name="Calque 2"><rect width="948.55" height="948.55" style="fill:#124e8a"/></g><g id="Livre2"><polygon points="299.27 874.63 161.81 687.02 606.31 609.72 631.27 791.69 299.27 874.63" style="fill:#2e2927"/><polygon points="310.01 855.3 180.37 676.55 612.75 596.84 629.48 778.61 310.01 855.3" style="fill:#ded4ce"/></g><g id="Fummée2"><path d="M410.36,125.92s36,29,15,48-70-31-93,0,81.13,30,72.57,83-68.57-19.45-100.57,31.27-114.69-21.47-136.84,7.13,25.87,79.1,32.36,103.35-121.52-2.43-79.52,78.91,128,86.88,65,116.61-140-60.73-146,0,54,162.66-6,162.19c0,0,50,11,70-14.21s-17.71-50.25,43.15-58.25-30.62,103.55,33.86,110,20.31,67.77,65.15,61.38,64.49,0,64.49,0,394.44-86.56,410.41-147.38,125.94-41,112.94-134-84-176,9-144,41-102.9-13-97.45-113-24.22-28-49.89,38-76.66-40-64.66c0,0,41,15.23,17,31.61s-123,5.19-130,45.79,47,44.78,52,75.69-96,33.91-117-13.09-27-141-92-114-48.83-38-34.41-46S481.36,137.92,410.36,125.92Z" style="fill:#191f16;opacity:0.5"/></g><g id="Crâne"><g id="Calque_5" data-name="Calque 5"><path d="M244.24,65.48s-49.86,25.64-37,77.61c4.12,24.91,30.45,34.08,38.38,63.19,0,0-10.05,18.09,15.95,23.44s51-15.64,45.7-24.46-17.5-44.44-44.47-53.12c-15-4.83-24.39-12.76-29-37.6C229,88.77,244.24,65.48,244.24,65.48Z" style="fill:#f5dccb"/><path d="M235.65,228c-10-21.32,7.26-33.05,22.3-24.8S235.65,228,235.65,228Z" style="fill:#dfc8b9"/><path d="M290.6,222.5c-5.86-6.76-21.62-35.43-46-38.83-13.58-1.89-22.78-7.28-30.43-27.86-7.93-21.35,1.61-43.55,1.61-43.55s-38.86,29.4-20.09,72c6.8,19.42,28.23,24.07,40.06,44.14-7.54,3.35-11.07,12.86-3.05,24.3,0,0,4.15-2.78,8.6-6.51,2.64,2.24,6.94,3.91,13.85,4.12C278.2,251,296.46,229.26,290.6,222.5Z" style="opacity:0.05"/></g><g id="Calque_3" data-name="Calque 3"><path d="M200.35,283c-6.9,25.5-47.4,6.13-57.38,16.46s-15.49,21.82-6.93,39.67,39.79,57.57,58.71,49.58,53.71-17.69,62.72,13.18,3.7,50.2,67.63,52,105.78-126.38,79.22-175-34-44.08-34-44.08,6.19-26.57-65.54-39.48c-52.14-9.1-50.71,18.41-50.71,18.41S216.77,222.35,200.35,283Z" style="fill:#dfc8b9"/><path d="M240.21,237c11.59,12.24,11.21,37.87,2,57s-19.65,27.23-37.89,31.35c8.45,1.76,40.17,4.09,54.26-33.17S240.21,237,240.21,237Z"/><path d="M242.7,244.91a.46.46,0,0,0,0-.22C242.68,244.75,242.68,244.84,242.7,244.91Z" style="fill:none"/><path d="M242.66,244.69a16,16,0,0,0-1.48-4.23A27.28,27.28,0,0,0,242.66,244.69Z" style="fill:#1d1d1b"/><path d="M240.21,237s.43,1.68,1,3.5a16,16,0,0,1,1.48,4.23.46.46,0,0,1,0,.22c2.92,13.62-13.81,66.1-40.42,78.59a2.87,2.87,0,0,0,2.07,1.82c18.24-4.12,28.71-12.22,37.89-31.35S251.8,249.2,240.21,237Z" style="fill:#1d1d1b;opacity:0.9"/><path d="M242.7,244.91c-.08,2.53-13.24,18.73-22.89,32-8.83,12.14-20.72,39.23-17.53,46.59C228.89,311,245.62,258.53,242.7,244.91Z" style="fill:#2d2d2b;opacity:0.9"/><path d="M179.33,381.12c-.61-3.45-5.31-6.9-10-7.22.88-4.19-5-10-10.91-9.94h0c2.14-2,3.56-3.79,3.49-5-.25-4.13-7.48-9.39-13.66-8.36h0c2.14-3.71,2-7.15-1.83-11-2.42-2.45-6.1-1.34-9.39,1.22,4.35-5.05,5.5-9.32.58-14.32-6.08-6.17-20.18,10.2-15.85,15.48,4,4.82,6.28,7.14,11.34,2.82-2.84,3.7-4.39,8-2.53,10.29,4.18,5.08,6.54,7.39,12.24,2-2.74,6.54-3.85,15.76-1.76,16.64,1.5.62,6.29-1.71,10.91-4.79h0c-4.8,4.94-2.78,8.34.73,10s5.27,5.49,6.29,6.35c.11.1.3.08.54,0,.14,2.35,2,3.77,4.33,4.45,3.73,1.08,6.1,4.55,7.24,5.23.2.12.55-.05,1-.41a5.9,5.9,0,0,0,4.21,2.7c3.8.79,6.44,4.06,7.63,4.65s6.52-8.29,7.27-12.82C191.83,384.87,185.14,380.4,179.33,381.12Z" style="fill:#f5dccb"/><path d="M337,37.16s-67.05,9.32-73.15,73.67c-5.24,30,21.1,51,18.52,87.34,0,0-18.67,16.6,8.83,33.08s64.36,2.52,61.84-9.65-2.21-57.62-29.48-78.28c-15.2-11.5-22.7-24.28-18-54.42C310.33,57.63,337,37.16,337,37.16Z" style="fill:#f5dccb"/><path d="M121.27,448c-5.34,6.35,14.37,67.42,14.37,67.42s5.57-36.41,29-34.27,83.78,37.59,83.78,37.59,7-87.16,76.8-98.73c0,0-57.36-19.36-55.56-40.85,0,0-38.47,64.27-91.66,65.64S121.27,448,121.27,448Z" style="fill:#edd5c5"/><path d="M191.24,436.55c-1-6.82-4.88-7.31-8.36-5.57a13.77,13.77,0,0,1-6.71,1c-1.69-1.78-4.1-1.59-6.32-.48a13.2,13.2,0,0,1-6.24,1.07c-1.7-2.1-4.24-1.94-6.58-.78a14,14,0,0,1-6.87,1.05c-2.13-4.78-5-8.72-6.51-8.32-1.13.29-2.68,2.81-4.13,6.13-1.16-1.89-2.62-3.13-4.26-3.13-4.33,0-7.23.14-8.56,2.47-5.67.1-8.35,1.1-7.56,9.07.87,8.73,3,13.71,11.15,13a4.64,4.64,0,0,0,3.71-2.51,13.77,13.77,0,0,0,2.76.07c3.11,2.18,10,1.92,14.16-1.44,2.42,2.63,8.51,2.22,12.48-.74,2.17,3.17,8.93,2.81,13.09-.49,2.57,3.56,11,2.5,14.73-2.27C191.22,444.72,192.2,443.37,191.24,436.55Z" style="fill:#f5dccb"/></g></g><g id="Ombre"><path id="_2" data-name="2" d="M404.32,278.84c-26.55-48.63-34-44.08-34-44.08s2.95-12.68-18.87-24.78c-2.12-18.64-6.46-50.36-28-66.66-15.2-11.5-22.7-24.28-18-54.42C310.33,57.63,337,37.16,337,37.16,305.27,54.41,270,75.23,273.66,156h0c.28.68.56,1.36.83,2a43.38,43.38,0,0,0-11.7-5.92c-8-2.57-14.37-6-19.29-12.39a37.26,37.26,0,0,1-4-6.46c-.24-.48-.48-1-.71-1.5a62.15,62.15,0,0,1-3.08-8.7c-.72-2.61-1.37-5.45-1.95-8.55a57.1,57.1,0,0,1-.9-11.82,66.37,66.37,0,0,1,.84-8.87c.23-1.42.5-2.81.8-4.16a83.42,83.42,0,0,1,7.4-20.17c.17-.32.33-.63.49-.91,1.08-2,1.81-3.13,1.81-3.13h0c-21.62,23-36.08,48.28-29.47,95.24l.54.77.7,1,.56.73c.24.33.5.65.75,1l.55.71.81,1,.55.66c.29.35.58.7.88,1l.51.61,1,1.2.37.42q1.71,2,3.47,3.9l.87,1,.63.71.86,1,.66.75.83.95.66.77.81,1,.66.79.79,1,.66.82c.26.32.51.65.77,1l.65.85.75,1,.63.87.74,1,.61.89.71,1.08.59.91c.23.38.46.75.68,1.13s.38.62.56.93.45.8.67,1.2l.51.93c.23.43.44.86.66,1.3s.31.6.45.91c.24.49.46,1,.68,1.49.12.27.25.53.36.81.34.77.66,1.57,1,2.37h0s-9,6.44-9.57,23.75c-11.58,9.59-25.54,27-34,58.16-6.9,25.5-47.4,6.13-57.38,16.46-7.21,7.45-12.08,15.52-11,26.15,2.06,0,9.6,4,4.54,12a24.83,24.83,0,0,1-10.23,8.93c1.91,1.07,3.91.77,6.78-1.69-.26.35-.52.71-.76,1.07l.82-.58c3.35-2.44,7.94-5.92,10.66-4.76s1.78,7.12-1.37,10.08-3.86,8.11-8.67,8c2.56,2.26,4.93,2.38,9-1.5,3.13-3.05,5.26-7.45,10.27-4.33s-7.22,20.15-12,21c1.5.62,6.29-1.71,10.91-4.79h0c-1.91,2-2.73,3.67-2.81,5.14,0,0,0,0,0,0,2.58-3.64,8.22-8.59,9.56-8.45s6.56,3.09,6.19,4.68-6.3,7.08-6.18,8.65-1.74,4.37-1.75,3.3c0-.77-.76-2.1-3.25-2.67,2.82,1.86,4.34,5,5.25,5.74.11.1.3.08.54,0a4.23,4.23,0,0,0,.34,1.41c.15-1.67,4.57-5.48,5.54-8.21s4-4.63,8.09-1.58c5,3.72-.35,8.7-2.74,12.3a9.17,9.17,0,0,1-2.71,3c1.4,1.2,2.42,2.43,3,2.8.2.12.55-.05,1-.41a3.74,3.74,0,0,0,.54.76c-.23-2.8,4.57-11.93,7.26-12.33s5.55,0,6.64,2.11-4.93,14-5.9,14.15h-.09c1.56,1.12,2.71,2.31,3.39,2.65,1.16.57,6.14-7.66,7.16-12.31a13.4,13.4,0,0,0,3.73-1c18-7.62,50.51-16.77,61.3,9.19-13.57,16.49-36.41,38.83-64.45,45.19a29.35,29.35,0,0,0-.36-6.5c-.41-2.93-1.37-4.69-2.61-5.61a11,11,0,0,0,.23,1.67c.85,4,.15,9.18-1.37,10.66s-9.73,2.2-10.24-1c-.35-2.2.33-6.67.59-10.22-.59,0-1.16,0-1.67,0a4,4,0,0,0-.45-.39,10,10,0,0,0,.24,2.22c.85,4.05.15,9.18-1.38,10.67s-9.72,2.19-10.23-1c-.38-2.34.42-7.27.63-10.9h-1.37a4.24,4.24,0,0,0-.85-.8,9.59,9.59,0,0,0,.22,2.8c.85,4,.15,9.17-1.38,10.66s-9.72,2.19-10.24-1c-.38-2.44.5-7.69.67-11.36-.67,0-1.31,0-1.87,0,1.4,13.9-3.53,15.62-8.2,14.51s-3.52-11.62-2.44-16.7a9,9,0,0,0-1.66-2c1.23,6.83-3.1,17.66-5.15,17.35-2.23-.34-3.6-2.24-4.83-12.24-.23-1.88-.33-3.45-.36-4.74a3.8,3.8,0,0,0-.82,1s1.51,11.94-1.33,14.8c-2.32,2.34-3.31,2.08-5.35-.31a14.76,14.76,0,0,0,1.26,3.46h0c-5.34,6.35,14.37,67.42,14.37,67.42s5.57-36.41,29-34.27,83.78,37.59,83.78,37.59,3.54-43.85,30.51-73.47c8.95,5,23,7.94,46.22,8.6C389,455.68,430.88,327.48,404.32,278.84ZM132.6,498.14c-.89-.55-10.84-43.76-10.77-45.3s10.87.2,10.77,1.88C128.73,465.73,133.5,498.68,132.6,498.14ZM281.2,194.57c1.51.26,2.38,2-1.13,3.11s-10.54,13.54-6.58,23.19,31,28.37,21.52,29-40.72-18.81-39.57-36.53S280.66,194.54,281.2,194.57Zm-66.5,57.79c12.78-28.33,38.59-36.24,38.59-36.24-.09,2.75,1.73,10.19,3.06,11.78S234.43,235,219,257.4,201.92,280.7,214.7,252.36Zm-22.59,51.92c-11.25,3.36-45.44-3.19-49.63.75s-3.3-4.52,5.06-6.42,31.61,1,42.37-2.1c3.91-1.12,6.28-4,7.43-2.57C200.68,298.18,203.35,300.92,192.11,304.28ZM257,376.94c-.87-6.77-50.52-21.76-59.49-33.84s-7.21-21.56-5.59-26.68,7-7.67,10.83-3.36a23.4,23.4,0,0,0,8.22,8.88c5.9,3.8,29.1-12,29.1-12l7.29.1c7.28.1,3.37,10.81-5.55,16.55s14.41,11.28,40,17.2S257.82,383.71,257,376.94Zm23.63,38.33A24.41,24.41,0,0,0,256.37,420c-12,10.66-33.53,25.66-60.26,26.12,0,0,38.83-9,67.92-49.78a4.23,4.23,0,0,1,6.27-.72,101,101,0,0,0,42.26,22.45S303.15,423.11,280.59,415.27Zm63.11-163.9c-9.23,1.9-30.53.95-30.51-1.67s.32-7.69,16.08-9.31,28.18-11.73,26.55-17.42-3.86-6.37-3-8.11c1.49-2.92,14.16,7.58,14.69,15.41S352.94,249.48,343.7,251.37ZM405,303.68c-4.05-20.27-39.12-48.59-42.2-53.51S367.44,234,371.8,236c8.48,3.82,19.66,22.9,30.61,42.14S409,324,405,303.68Z" style="fill:#1d1d1b;opacity:0.1"/><path id="_1" data-name="1" d="M404.32,278.84c-26.55-48.63-34-44.08-34-44.08s2.95-12.68-18.87-24.78c0,0,16.84,34.17-42,28.13,0,0,3.94,7.5-1,14.11s-30.37-1.63-36-9.62-9.25-2.2-4.55,26.07-16.7,50.53-12.39,55.95,43.25,3.17,52.14,27.5,9.61,42-10,48.78a39.82,39.82,0,0,0-6.93,3.37c5.71,3.35,20,11.3,34.33,15.72,0,0-23.37,1.35-46.27,25.27,8.95,5,23,7.94,46.22,8.6C389,455.68,430.88,327.48,404.32,278.84Z" style="fill:#1d1d1b;opacity:0.1"/></g><g id="Fumée1"><path d="M154.11,413.11C151.82,401,174.89,391,181.92,393.05s32.73-60.48,64-22.31-15.75,25,55.82,39.48c34.66,7,38,46.62,61.85,28.17C392,416.48,314.2,386.93,403.4,284.13c34.91-40.23,179.18-36.08,175.12,49.65s85.84,16.84,71.74,115.46-98.11,115.9-51.62,188.65-3.45,164.27-3.45,164.27L310.13,855.83s-62-198.13-155.82-198.94-115.76-82.92-31-105.3,23.87-57.93,53.47-80S161.86,454,154.11,413.11Z" style="fill:#191f16;opacity:0.5"/></g><g id="Livre1"><path d="M310.13,855.83c4.71-18.24,34.9-14.22,40.14-12.61s31.71-43,54.66-65.56,112.76-93,112.76-93,371.42-103.15,380-101,7.07,34.65,7.07,34.65L355.9,885.09Z" style="fill:#fff4ed"/><path d="M299.27,874.63c2.1-12.17,6.71-23.36,18.52-17.18s28.72,29.79,47-10.47C368,839.47,519.35,740.7,532.23,735.33s369.58-130.44,382.46-120S682,811,669.92,814.24,352.68,900.39,347,898,297.39,885.51,299.27,874.63Z" style="fill:#423b38"/></g></svg>