<?xml version="1.0" encoding="utf-8"?>
<!-- Generator: Adobe Illustrator 22.0.0, SVG Export Plug-In . SVG Version: 6.00 Build 0)  -->
<svg version="1.1" xmlns="http://www.w3.org/2000/svg" xmlns:xlink="http://www.w3.org/1999/xlink" x="0px" y="0px"
	 viewBox="0 0 948.5 948.5" style="enable-background:new 0 0 948.5 948.5;" xml:space="preserve">
<style type="text/css">
	.st0{fill:#124E8A;}
	.st1{fill:#FBBE30;}
	.st2{opacity:0.15;}
	.st3{fill:#F9D3CA;}
	.st4{fill:#5F9B3E;}
	.st5{fill:#F4A797;}
	.st6{opacity:0.1;}
	.st7{fill:none;}
	.st8{fill:#989897;}
	.st9{fill:#FFFFFF;}
	.st10{fill:#B4B4B4;}
	.st11{fill:#374444;}
	.st12{fill:#656766;}
	.st13{fill:#8D8E8E;}
</style>
<g id="Calque_2">
	<g>
		<rect class="st0" width="948.5" height="948.5"/>
	</g>
</g>
<g id="Calque_4">
	<path class="st1" d="M585.3,703.9c6-47.7-11-51.7-3-78.9l-8.3,1.1l0.3-137.5V359.9l-193.7-65L187,352.5v136.1v137.5l-8-1
		c8,27.2-9,31.2-3,78.9c0,0,5.3-29.7,15.7-35c0,0-12.3,84.3,12.3,105.7c0,0,1.7-93.3,13.3-95.7c0,0-4.7,84,6,99.3
		c0,0,4.7-44,17.7-47c0,0-5.3,62.7,9,71c0,0,12.3-121,21.3-123.3c0,0-11.3,144,8,155.7c0,0,12.7-129,24-144.7c0,0,6,82.7,20.3,104.3
		c0,0,1.7-98.7,10-106.7c0,0,2.6,83.3,19,98.3c0,0-3.3-80,3.7-89.3c0,0,7,64.7,14.7,71.7c0,0,0.8-51,9.6-70h0.2
		c8.8,19,9.6,70,9.6,70c7.7-7,14.7-71.7,14.7-71.7c7,9.3,3.7,89.3,3.7,89.3c16.3-15,19-98.3,19-98.3c8.3,8,10,106.7,10,106.7
		C452,772.6,458,689.9,458,689.9c11.3,15.7,24,144.7,24,144.7c19.3-11.7,8-155.7,8-155.7c9,2.3,21.3,123.3,21.3,123.3
		c14.3-8.3,9-71,9-71c13,3,17.7,47,17.7,47c10.7-15.3,6-99.3,6-99.3c11.7,2.3,13.3,95.7,13.3,95.7c24.7-21.3,12.3-105.7,12.3-105.7
		C580,674.3,585.3,703.9,585.3,703.9z"/>
	<path class="st2" d="M187,352.5v136.1v137.5l-8-1c8,27.2-9,31.2-3,78.9c0,0,5.3-29.7,15.7-35c0,0-12.3,84.3,12.3,105.7
		c0,0,1.7-93.3,13.3-95.7c0,0-4.7,84,6,99.3c0,0,4.7-44,17.7-47c0,0-5.3,62.7,9,71c0,0,12.3-121,21.3-123.3c0,0-11.3,144,8,155.7
		c0,0,12.7-129,24-144.7c0,0,6,82.7,20.3,104.3c0,0,1.7-98.7,10-106.7c0,0,2.6,83.3,19,98.3c0,0-3.3-80,3.7-89.3
		c0,0,7,64.7,14.7,71.7c0,0,0.8-51,9.6-70l0.1-403.3L187,352.5z"/>
	<path class="st3" d="M380,138.6L380,138.6c-103.6,0-188.3,84.7-188.3,188.3v44c0,103.6,84.7,188.3,188.3,188.3h0
		c103.6,0,188.3-84.7,188.3-188.3v-44C568.3,223.3,483.6,138.6,380,138.6z"/>
	<circle class="st4" cx="318.1" cy="352.5" r="26.1"/>
	<circle class="st4" cx="441.9" cy="352.5" r="26.1"/>
	<path class="st5" d="M380.6,467.9L380.6,467.9c-16.6,0-30.3-13.6-30.3-30.2v-81c0-16.6,13.6-30.2,30.2-30.2h0
		c16.6,0,30.2,13.6,30.2,30.2v81C410.8,454.3,397.2,467.9,380.6,467.9z"/>
	<path class="st1" d="M649.8,467.9c0-38.7-71.9-93.2-70.9-133.8c0,0-0.1,0.6-0.4,1.6l1.1-41.9c0,0,4.5-179.9-198.9-180v0
		c0,0-0.1,0-0.1,0s-0.1,0-0.1,0v0c-203.4,0.1-198.9,180-198.9,180l1.1,41.2c-0.1-0.6-0.2-0.9-0.2-0.9c1,40.5-70.9,95.1-70.9,133.8
		c0,38.7,70,51.9,61.3,95s-35.3,104.5-6.7,161.1c0,0,0-61.7,28-106.9c28-45.2-7.5-128.9-4.9-185.7c0,0,0,0,0,0
		c1-21.9,2.2-48,3.5-74.1C196.3,292,376.4,254.8,380.7,207c4.2,47.8,184.4,85.1,187.7,150.3c1.4,28.6,2.8,57,3.8,80.1
		c0.1,56.6-32,136.1-5,179.7c28,45.2,28,106.9,28,106.9c28.7-56.6,2-118.1-6.7-161.1S649.8,506.6,649.8,467.9z"/>
	<path class="st6" d="M380.8,114.2C380.8,114.2,380.8,114.2,380.8,114.2L380.8,114.2c-203.5,0.1-199,180-199,180l1.1,41.2
		c-0.1-0.6-0.2-0.9-0.2-0.9c1,40.5-70.9,95.1-70.9,133.8c0,38.7,70,51.9,61.3,95s-35.3,104.5-6.7,161.1c0,0,0-61.7,28-106.9
		c28-45.2-7.5-128.9-4.9-185.7c0,0,0,0,0,0c0.7-15.6,1.5-33.3,2.4-51.6c4.7,99.5,87.5,179.4,188.1,179.4h0c0.2,0,0.5,0,0.7,0
		L380.8,114.2C380.9,114.2,380.8,114.2,380.8,114.2z"/>
	<path class="st1" d="M909.4,355.5c0,0-0.1,0.3-0.2,0.8l0.2,0.3C909.4,356.2,909.4,355.8,909.4,355.5z"/>
	<path d="M909.2,356.3l-0.1-0.2l0,1C909.1,356.8,909.2,356.5,909.2,356.3z"/>
	<path class="st6" d="M380.6,206.9c0,0.4-0.1,0.9-0.2,1.3c-0.1,5.3,4.8,26.6,76.3,68.1c83.6,48.5,98.5,70.9,104.9,92.2l6.7-10.4
		c0-0.3,0-0.7-0.1-1C564.9,292,384.8,254.8,380.6,206.9z"/>
	<path d="M711,229.6c0.1-0.4,0.1-0.9,0.2-1.3C711.2,228.2,711,228.7,711,229.6z"/>
	<path class="st6" d="M176.4,526.3c-1.3-32.7,1.7-49,0-65.8c-1.7-16.8-53.2,1.5-64.5,7.7c-0.1,0-0.1,0.1-0.2,0.1
		c0.4,38.4,70,51.7,61.3,94.6c-0.6,3.1-1.3,6.3-2.1,9.5h0C170.8,572.5,177.7,559,176.4,526.3z"/>
</g>
<g id="Calque_5">
	<path class="st7" d="M568.3,357.9L568.3,357.9c0-0.2,0-0.4,0-0.7V357.9z"/>
</g>
<g id="Calque_9">
	<polyline class="st8" points="578.1,348.9 735.6,397.2 619.5,491.8 578.1,348.9 	"/>
</g>
<g id="Calque_6">
	<path d="M574.8,809.9c-30.6,0-64.1-6.8-95.5-19.6c-31.1-12.7-45.9-75.6-43.8-186.9c1.5-82.5,12.1-162.4,12.2-163.2l3,0.4
		c-0.4,3.2-41.8,317.7,29.8,346.9c29.7,12.1,62.6,19.4,93.7,19.4c50.9,0,97.2-19.4,118.3-68.6c35.6-82.9,94.4-172,95-172.9l2.5,1.7
		c-0.6,0.9-59.3,89.8-94.7,172.4c-16.4,38.3-49,62-94.1,68.6C592.7,809.3,583.9,809.9,574.8,809.9z"/>
	<path class="st6" d="M558.8,824c-30.6,0-64.1-6.8-95.5-19.6c-31.1-12.7-45.9-75.6-43.8-186.9c1.5-82.5,12.1-162.4,12.2-163.2l3,0.4
		c-0.4,3.2-41.8,317.7,29.8,346.9c29.7,12.1,62.6,19.4,93.7,19.4c50.9,0,97.2-19.4,118.3-68.6c35.6-82.9,94.4-172,95-172.9l2.5,1.7
		c-0.6,0.9-59.3,89.8-94.7,172.4c-16.4,38.3-49,62-94.1,68.6C576.8,823.4,567.9,824,558.8,824z"/>
	<path class="st6" d="M540.7,352C540.7,352,540.7,352,540.7,352c-21.4-10.9-51.1-74.8-57.5-72.6c-6.4,2.2-28.9,86.8-27,103.4
		c-31.2,24.9-52.8,60.9-62.1,93.2c0,0,0,0,0,0c-13,40.5-41.5,72-41.5,72s26.7,5.5,35.4-8.6c0,0,0,42.9-27.8,75.2
		c0,0,25.3-1.2,40.5-24.3c0,0,5.4,27.7-6.9,49.1l31.1-18.6c0,0,2.2,14.7-9,29.5c0,0,31.8-21,41.4-24.8l0,0c4.2-1.3,8.7-3.3,13.4-5.8
		c0,0,0,0,0,0c0.9,2.7,2,5.6,3.3,8.5c0,0,0,0,0,0c0.3,0.7,0.6,1.4,1,2.1c0,0.1,0.1,0.1,0.1,0.2c0.3,0.6,0.6,1.3,0.9,1.9
		c0,0.1,0.1,0.2,0.1,0.3c0.3,0.6,0.6,1.3,1,1.9c0.1,0.1,0.1,0.2,0.2,0.3c0.3,0.6,0.7,1.3,1,1.9c0.1,0.1,0.1,0.2,0.2,0.3
		c0.4,0.6,0.7,1.3,1.1,1.9c0,0.1,0.1,0.1,0.1,0.2c0.4,0.7,0.8,1.4,1.3,2.1c0,0,0,0.1,0.1,0.1c10.9,17.2,29.3,34.1,60.4,43l0,0l0,0h0
		L598.6,497C618.1,433.1,605.9,354.8,540.7,352z"/>
	<path class="st8" d="M561.6,346.5C561.6,346.5,561.7,346.5,561.6,346.5c-21.4-10.9-51.1-74.8-57.5-72.6
		c-6.4,2.2-28.9,86.8-27,103.4c-31.2,24.9-52.8,60.9-62.1,93.2c0,0,0,0,0,0c-13,40.5-41.5,72-41.5,72s26.7,5.5,35.4-8.6
		c0,0,0,42.9-27.8,75.2c0,0,25.3-1.2,40.5-24.3c0,0,5.4,27.7-6.9,49.1l31.1-18.6l0,0c0,0,2.2,14.7-9,29.5c0,0,31.8-21,41.4-24.8h0
		c51.1-15.7,141.3-128.7,141.3-128.7C639,427.6,626.8,349.2,561.6,346.5z"/>
	<circle class="st9" cx="557.9" cy="478.1" r="26.1"/>
	<path d="M570,469.3l-11.3,6l-6-11.3c-0.6-1.2-2.2-1.7-3.4-1c-1.2,0.6-1.7,2.2-1,3.4l6,11.3l-11.3,6c-1.2,0.6-1.7,2.2-1,3.4
		c0.6,1.2,2.2,1.7,3.4,1l11.3-6l6,11.3c0.6,1.2,2.2,1.7,3.4,1c1.2-0.6,1.7-2.2,1-3.4l-6-11.3l11.3-6c1.2-0.6,1.7-2.2,1-3.4
		C572.7,469.1,571.2,468.7,570,469.3z"/>
	<path class="st10" d="M538.1,504.1c-23.2-12.7-33.6-33.7-46.3-38.4l0,0c-20.4-13.6-60.7,2.8-67.2,12.3c0,0,29,2.3,33.8,10.3
		c0,0-37.4,4.5-49.7,24.8c0,0,35.2,1.8,43,13.1c0,0-20.7-3.4-34,16.3c0,0,29-2.5,37.8,3.5c0,0-15.6,6.9-18.8,15.6
		c0,0,22.7-4.6,25.1-0.6c0,0-6.6,6-3.7,18.6c0,0,10.6-4.8,13.4-5.7c0.1,0.1,0.2,0.2,0.2,0.2c-1.3,0.8-4.9,11-1.8,12.2
		c0,0,9.8-6,12.3-5.1l-0.1,4.4l3.9-3.1c0,0-2.3,73.9,76.2,96.3l57.2-187.5C619.5,491.4,573.8,523.7,538.1,504.1z"/>
	<path class="st11" d="M579,624.2L533,613.9c0,0-23.8,48.4,29.2,65L579,624.2z"/>
	<path class="st12" d="M504.4,289c-0.5,0.9-1.7,4.7-3.1,10.1c10.4,11.6,30.4,40.9,31,51.2c2.7-1,5-1.8,6.8-1.9
		C552.2,347,506.9,284.5,504.4,289z"/>
	<path class="st13" d="M501.3,299.1c-5.9,21.9-16.9,70.9-13,72c4.1,1.2,29.2-15.1,44-20.9C531.7,340,511.7,310.7,501.3,299.1z"/>
	<path class="st8" d="M748.4,403.5C748.4,403.5,748.4,403.4,748.4,403.5c23.8,3,84.1-33.5,88.2-28.1c4.1,5.4-24.5,88.2-35.3,100.8
		c12,38.1,9.8,80-0.5,112c0,0,0,0,0,0c-11.8,40.8-5.8,82.9-5.8,82.9s-25.3-10.3-24.6-26.8c0,0-23.9,35.6-18.9,77.9
		c0,0-20.3-15.2-20-42.7c0,0-19.9,20-21.7,44.6l-15.5-32.8h0c0,0-10,10.9-9,29.5c0,0-14.7-35.1-20.5-43.7l0,0
		c-33.7-41.6-45.4-185.7-45.4-185.7C639,427.6,692.8,369.4,748.4,403.5z"/>
	<circle class="st9" cx="678.1" cy="514.7" r="26.1"/>
	<path d="M672.9,500.7l6,11.3l11.3-6c1.2-0.6,2.7-0.2,3.4,1c0.6,1.2,0.2,2.7-1,3.4l-11.3,6l6,11.3c0.6,1.2,0.2,2.7-1,3.4
		c-1.2,0.6-2.7,0.2-3.4-1l-6-11.3l-11.3,6c-1.2,0.6-2.7,0.2-3.4-1c-0.6-1.2-0.2-2.7,1-3.4l11.3-6l-6-11.3c-0.6-1.2-0.2-2.7,1-3.4
		C670.8,499,672.3,499.5,672.9,500.7z"/>
	<path class="st10" d="M680,547.4c26.3,2.4,46.7-9.2,59.8-6l0,0c24.5,0.1,48.8,36.2,48.9,47.8c0,0-25.4-14.3-33.8-10.3
		c0,0,28.5,24.6,27.4,48.3c0,0-30.3-18.1-43-13.1c0,0,19.1,8.7,19.1,32.5c0,0-22.7-18.3-33.3-18.2c0,0,9.1,14.5,6.8,23.4
		c0,0-16.3-16.5-20.5-14.5c0,0,2.2,8.6-7.3,17.5c0,0-6.2-9.9-8-12.2c-0.1,0-0.2,0-0.3,0.1c0.6,1.4-2.1,11.8-5.3,11.1
		c0,0-4.8-10.5-7.4-11.1l-2.4,3.7l-1.5-4.8c0,0-39.3,62.6-117,37.3l57.2-187.5C619.5,491.4,639.4,543.7,680,547.4z"/>
	<path class="st11" d="M579,624.2l43.9,17.1c0,0-7.2,53.5-60.6,37.6L579,624.2z"/>
	<path class="st12" d="M828.1,387.7c-0.1,1-1.2,4.8-3.1,10.2c-15.1,3.8-48.1,17-54.3,25.2c-1.6-2.4-3.2-4.3-4.6-5.4
		C756,409.2,828.4,382.6,828.1,387.7z"/>
	<path class="st13" d="M825,397.9c-7.3,21.4-25.6,68.2-29.4,67.1c-4.1-1.2-15.8-28.8-24.9-41.9C776.9,414.8,809.9,401.7,825,397.9z"
		/>
</g>
<g id="Calque_8">
	<path class="st7" d="M417.6,542.6c0,0,3-0.3,7.3-0.4l21-16.1C438.8,526.6,426.6,529.4,417.6,542.6z"/>
	<path class="st7" d="M438.4,561.4c0.9-1.9,2-4.3,3.3-6.6c-2.3,2.1-4.2,4.4-5.1,6.9C436.6,561.7,437.3,561.6,438.4,561.4z"/>
	<path class="st7" d="M457.8,578.7c0.1-4.1,0.2-9,0.8-12.5C457.5,569.1,456.7,573.3,457.8,578.7z"/>
	<polygon class="st7" points="469.5,578.8 469.5,578.8 469.5,578.8 	"/>
	<path class="st7" d="M408.6,513.2c0,0,3.7,0.2,8.9,0.8c8.3-7.7,22.9-19.8,32.6-19.5c7.4,0.3,4.9-2.1-0.9-4.5
		C437.2,492.8,417,499.3,408.6,513.2z"/>
	<path class="st6" d="M469.5,578.8c0.7-2.2,1.6-4.1,2.1-4.5c-0.1-0.1-0.2-0.2-0.2-0.2c-2.8,0.9-13.4,5.7-13.4,5.7
		c-0.1-0.4-0.2-0.7-0.2-1.1c-0.1,4.1,0,7.4,0,7.4C459.8,582.8,469.5,578.8,469.5,578.8z"/>
	<path class="st6" d="M468.7,590.6c0.6-2,11.1-5.7,11.1-5.7l0.2,6.2l3.9-2.7c0,2.5,5.2,23.3,7.7,25.9c-6-17.7-5.5-31.7-5.5-31.7
		l-3.9,3.1l0.1-4.4c-2.5-0.9-12.3,5.1-12.3,5.1c-1.8-0.7-1.3-4.5-0.3-7.7C467.1,582.5,468.7,590.6,468.7,590.6z"/>
	<path class="st6" d="M445.9,526.2L445.9,526.2c3.5-0.2,5.7,0.2,5.7,0.2c-5.3-7.6-23.2-11-34.1-12.3c-3.8,3.5-6.3,6.1-6.3,6.1
		C424.2,516.3,445.9,526.2,445.9,526.2z"/>
	<path class="st6" d="M459.7,562.2c-0.5,0.7-0.9,2.2-1.2,4.1c1.3-3.4,3.2-5.1,3.2-5.1c-2-3.3-17.9-0.7-23.3,0.2
		c-1.1,2.5-1.8,4.3-1.8,4.3C441.3,562.4,459.7,562.2,459.7,562.2z"/>
	<path class="st6" d="M449.1,490.1c5.5-1.2,9.2-1.7,9.2-1.7c-3-5-15.3-7.7-24.2-9.1c-3.5,2.8-4.5,6.3-4.5,6.3
		C435.6,485.7,443.8,487.9,449.1,490.1z"/>
	<path class="st6" d="M448.9,546.7c-2.6,1.1-5.1,4.5-7.2,8.1c5.7-5.2,13.7-8.7,13.7-8.7c-5.9-4.1-21.2-4.2-30.4-3.9l-6.4,4.9
		C426.6,543.4,448.9,546.7,448.9,546.7z"/>
	<path class="st6" d="M563.5,459.8c-10.4-3.2-21.4,2.7-24.6,13.1s2.7,21.4,13.1,24.6s21.4-2.7,24.6-13.1S573.9,463,563.5,459.8z
		 M553.3,493.1c-8-2.4-12.5-10.9-10-18.8c2.4-8,10.9-12.5,18.8-10c8,2.4,12.5,10.9,10,18.8C569.7,491.1,561.3,495.6,553.3,493.1z"/>
	<path class="st7" d="M556.9,677.3c3.2,1.2,5.3,1.6,5.3,1.6C560.4,678.4,558.6,677.8,556.9,677.3z"/>
	<path class="st6" d="M532.8,614.3c0,0,5.1-32.9-1.5-37c-6.6-4.1-37.1-13.7-50.2-29.2c0,0,3,16.7,4.9,34.6c0,0-0.4,14,5.5,31.7
		c0,0,0.1,0,0.1,0c7.4,22,24.8,49.6,65.3,63C544.4,672.6,516.1,655.4,532.8,614.3z"/>
	<path class="st6" d="M571,648.1c-11.4-2.7-38.8-19.1-38-34.1c0,0-23.8,48.4,29.2,65l9.4-30.7C571.4,648.2,571.2,648.1,571,648.1z"
		/>
	<path class="st6" d="M582.7,486.1c-4.4,13.5-18.8,21-32.4,16.9c-12.5-3.8-20.1-16.2-18.2-28.8c0,0.2-0.1,0.3-0.2,0.5
		c-4.2,13.8,3.6,28.4,17.3,32.6c13.8,4.2,28.4-3.6,32.6-17.3C582.2,488.7,582.5,487.4,582.7,486.1z"/>
	<path class="st6" d="M561.6,346.5C561.6,346.5,561.6,346.4,561.6,346.5c-21.4-10.9-51.1-74.8-57.5-72.6
		c-6.4,2.2-28.9,86.8-27,103.4c-31.2,24.9-52.8,60.9-62.1,93.2c0,0,0,0,0,0c-13,40.5-41.5,72-41.5,72s26.7,5.5,35.4-8.6
		c0,0,0,42.9-27.8,75.2c0,0,25.3-1.2,40.5-24.3c0,0,5.4,27.7-6.9,49.1l31.1-18.6c0,0,2.2,14.7-9,29.5c0,0,31.8-21,41.4-24.8l0,0
		c4.2-1.3,8.7-3.3,13.4-5.8c0,0,0,0,0,0c0.9,2.7,2,5.6,3.3,8.5c0,0,0,0,0,0c0.3,0.7,0.6,1.4,1,2.1c0,0.1,0.1,0.1,0.1,0.2
		c0.3,0.6,0.6,1.3,0.9,1.9c0,0.1,0.1,0.2,0.1,0.3c0.3,0.6,0.6,1.3,1,1.9c0.1,0.1,0.1,0.2,0.2,0.3c0.3,0.6,0.7,1.3,1,1.9
		c0.1,0.1,0.1,0.2,0.2,0.3c0.4,0.6,0.7,1.3,1.1,1.9c0,0.1,0.1,0.1,0.1,0.2c0.4,0.7,0.8,1.4,1.3,2.1c0,0,0,0.1,0.1,0.1
		c10.9,17.2,29.3,34.1,60.4,43c0,0,0,0,0,0l0,0h0l57.2-187.5C639,427.6,626.8,349.2,561.6,346.5z"/>
	<path class="st7" d="M758.4,646.6c0,0-2.3-1.9-5.9-4.4l-8.5-25C749.8,621.4,758.4,630.6,758.4,646.6z"/>
	<path class="st7" d="M730.7,650.6c0.4-2.1,0.7-4.7,0.9-7.3c0.7,3,1,6,0.4,8.6C732,651.9,731.5,651.4,730.7,650.6z"/>
	<path class="st7" d="M704.9,654.1c2.2-3.4,4.8-7.6,6.3-10.8C710.6,646.4,708.9,650.2,704.9,654.1z"/>
	<polygon class="st7" points="695.1,647.7 695.1,647.7 695.1,647.7 	"/>
	<path class="st7" d="M782.3,627.2c0,0-3.1-1.9-7.8-4.3c-2.6-11-7.9-29.2-16.1-34.3c-6.2-3.9-2.9-4.5,3.3-3.2
		C770,594.3,783.1,611,782.3,627.2z"/>
	<path class="st6" d="M695.1,647.7c0.7-2.2,1-4.3,0.7-4.9c0.1,0,0.2,0,0.3-0.1c1.8,2.3,8,12.2,8,12.2c0.3-0.3,0.5-0.5,0.8-0.8
		c-2.3,3.5-4.2,6.1-4.2,6.1C701,656.4,695.1,647.7,695.1,647.7z"/>
	<path class="st6" d="M689.3,657.9c0.6-2-6-10.9-6-10.9l-3.6,5.1l-1.7-4.4c-1.4,2.1-17.3,16.4-20.9,17.1
		c14.8-11.3,22.3-23.2,22.3-23.2l1.5,4.8l2.4-3.7c2.6,0.6,7.4,11.1,7.4,11.1c1.9,0.4,3.6-3,4.5-6.2
		C695.1,652.1,689.3,657.9,689.3,657.9z"/>
	<path class="st6" d="M744.1,617.1L744.1,617.1c-2.8-2.1-4.8-3-4.8-3c8.6-3.4,25.3,3.8,35.2,8.9c1.2,5.1,1.8,8.6,1.8,8.6
		C767.6,621.1,744.1,617.1,744.1,617.1z"/>
	<path class="st6" d="M712.6,639.3c0,0.9-0.5,2.3-1.3,4.1c0.8-3.6,0.2-6,0.2-6c3.5-1.6,15.3,9.4,19.2,13.2c-0.5,2.7-0.9,4.6-0.9,4.6
		C727.7,649.8,712.6,639.3,712.6,639.3z"/>
	<path class="st6" d="M761.6,585.4c-3.8-4.1-6.7-6.5-6.7-6.5c5.2-2.5,17,2.1,25.1,5.9c1.3,4.3,0.2,7.8,0.2,7.8
		C775.3,589.4,767.3,586.6,761.6,585.4z"/>
	<path class="st6" d="M730.2,632.6c1.5,2.4,1.7,6.6,1.4,10.7c-1.8-7.5-6.5-14.9-6.5-14.9c7.2-0.1,20,8.4,27.4,13.8l2.6,7.7
		C750.5,642.3,730.2,632.6,730.2,632.6z"/>
	<path class="st6" d="M659,509.6c-3.2,10.4,2.7,21.4,13.1,24.6s21.4-2.7,24.6-13.1s-2.7-21.4-13.1-24.6S662.2,499.2,659,509.6z
		 M663.5,511c2.4-8,10.9-12.5,18.8-10c8,2.4,12.5,10.9,10,18.8s-10.9,12.5-18.8,10S661,518.9,663.5,511z"/>
	<path class="st7" d="M407.9,759.6c-3.3-0.8-5.3-1.6-5.3-1.6C404.3,758.6,406.1,759.1,407.9,759.6z"/>
	<path class="st6" d="M622.8,641.8c0,0,14.2-30.1,21.9-29.9s38.4,9.3,57.9,3.8c0,0-11.8,12.2-23.4,26c0,0-7.4,11.9-22.3,23.2
		c0,0,0-0.1,0-0.1c-18.4,14.1-48.3,27.3-89.3,15.8C580.6,683.7,613.8,685.2,622.8,641.8z"/>
	<path class="st6" d="M572.3,648.5c11,4.1,42.9,5.8,50.6-7.1c0,0-7.2,53.5-60.6,37.6l9.4-30.7C571.9,648.3,572.1,648.4,572.3,648.5z
		"/>
	<path class="st6" d="M653,507.6c-3.9,13.6,3.8,28,17.5,32.1c12.5,3.8,25.7-2.2,31.2-13.7c0,0.2-0.1,0.3-0.1,0.5
		c-4.2,13.8-18.8,21.5-32.6,17.3c-13.8-4.2-21.5-18.8-17.3-32.6C652,510,652.4,508.7,653,507.6z"/>
</g>
<g id="Calque_7">
	<path class="st3" d="M595.2,733.6l-41.8-16.1c-17.2-6.6-25.9-26.2-19.3-43.4l12.4-32.3c6.6-17.2,26.2-25.9,43.4-19.3l41.8,16.1
		c17.2,6.6,25.9,26.2,19.3,43.4l-12.4,32.3C632,731.6,612.4,740.3,595.2,733.6z"/>
	<path class="st6" d="M644.1,647.3c0.9,5.6,0.3,11.5-1.8,17.1l-12.4,32.3c-6.6,17.2-26.2,25.9-43.4,19.3l-41.8-16.1
		c-4.9-1.9-9.2-4.9-12.5-8.5c1.8,11.5,9.5,21.9,21.1,26.3l41.8,16.1c17.2,6.6,36.8-2,43.4-19.3l12.4-32.3
		C655.6,669.9,652.5,656.4,644.1,647.3z"/>
</g>
</svg>
