<?xml version="1.0" encoding="utf-8"?>
<!-- Generator: Adobe Illustrator 22.0.1, SVG Export Plug-In . SVG Version: 6.00 Build 0)  -->
<svg version="1.1" id="Calque_4" xmlns="http://www.w3.org/2000/svg" xmlns:xlink="http://www.w3.org/1999/xlink" x="0px" y="0px"
	 viewBox="0 0 946 948.6" style="enable-background:new 0 0 946 948.6;" xml:space="preserve">
<style type="text/css">
	.st0{fill:#8B181A;}
	.st1{fill:#CC9E4A;}
	.st2{opacity:0.1;}
	.st3{fill:#D8D0AC;}
	.st4{fill:#21221B;}
	.st5{opacity:0.2;fill:#FFFFFF;}
	.st6{fill:#FFFFFF;}
</style>
<g>
	<rect y="0" class="st0" width="946" height="948.5"/>
</g>
<path class="st1" d="M421.4,237.7c-32.1-13.5-82.1-106-99.4-111.6c0,0-20,128.3,0,136.7C341.9,271.1,421.4,237.7,421.4,237.7z"/>
<path class="st2" d="M421.4,237.7c-32.1-13.5-82.1-106-99.4-111.6c0,0-20,128.3,0,136.7C341.9,271.1,421.4,237.7,421.4,237.7z"/>
<path class="st1" d="M456.1,239.2c-128.6-16.1-260,86.7-280.8,198.7s458.1,31.3,458.1,31.3s-43,166.2-121.2,210.5
	s183.1,85.4,254.8,48.2l-24.1-26.7c0,0,49.5-37.8,54.7-72.3c0,0-52.1-3.3-59.3-18.9l35.8-26.1c0,0-26.1-30-29.3-41l-5.2-53
	l-11.7-12.1c0,0-52.1-106.9-51.5-121.2c0.7-14.3,53.4-129.7-20.9-222.2c0,0-89.9,79.5-110.1,116.6
	C545.4,250.9,508.3,245.7,456.1,239.2z"/>
<path class="st3" d="M239.2,361c0,0-34.4-6.2-47.1,26.9c-12.7,33.1-34.3,65.6-34.3,65.6l13-9.1c0,0-27.4,93.2-21.5,129.7l9.8-9.8
	c0,0,16.3,87.3,30.6,125.8l4.1-10.4l45.4,86l10.4-56.7l46.9,82.1l16.3-48.7l25.4,77.4l35.8-80.1c0,0,15.6,31.9,22.2,40.4l27.4-43
	c0,0,35.2,38.4,59.3,43.7l-9.1-42.4c0,0,42.4,25.4,69.7,23.5l-28.7-33.2c0,0,33.6,6.4,74.5,6.8l-34.7-36.7l71-11.7l-31.3-28.7
	c0,0,50.2-35.2,58.6-86.7c0,0-13,5.9-23.5-9.8l51.5-68.4l-14.3-3.9l14.3-34.5L533,426.2c0,0-47.6,27.9-118.3,43
	c-15.2,3.3-26.3,43.7-63.4,3.9s-104.9-22.8-104.9-22.8S216.4,389.7,239.2,361z"/>
<path class="st3" d="M313.4,385.5c39.3-15.4,64.6-82.2,41.4-89.7c-23.2-7.4-61.9,20.6-55.1,38.8
	C306.6,352.9,298.5,391.3,313.4,385.5z"/>
<path class="st4" d="M418.9,577.3l-80.9,9.9c-3.3,0.4-6.7-0.1-9.8-1.3l-64.4-26.7c-2.9-1.2-4.6-4.2-4.2-7.2l2.5-17.7
	c16-3.4,56.4-16,55.1-56.5c0,0-43.7-42.7-92.5-12.4c0,0-22.4,46.8,22.4,66.8l4.5,20.9c0.6,2.7-1.3,5.4-4.1,5.7
	c-7.3,0.9-20,2.8-21.9,6c-2.1,3.6,69.5,23.5,100.3,31.8c9,2.4,18.4,2.4,27.4-0.2l65.5-18.8C419.1,577.5,419.1,577.2,418.9,577.3z"/>
<path class="st5" d="M294.9,477c4.6,5.2,10.6,17.2,15.5,28.1c4.5-7.3,7.3-16.3,7-27.4c0,0-43.1-42.1-91.6-12.9
	C247.6,466,288,469.2,294.9,477z"/>
<path class="st3" d="M581.2,275.4c-0.1-2.4,65.5-113.7,72.3-119.2c0,0,32.6,129.3,0,196.1C653.6,352.2,585.8,365.3,581.2,275.4z"/>
<path class="st2" d="M581.2,275.4c2.8,54.7,29,71.3,49,75.9c-56.5-61.9,3.1-125.1,23.3-195.2C646.7,161.7,581.1,273,581.2,275.4z"/>
<path class="st4" d="M305.1,389.2c10.3-17.1,3.3-37.5-18.4-40.7s-32.6,26.7-32.1,37.8c0.5,11.1,11.9,23.9,26.7,21.3
	C296.2,405,305.1,389.2,305.1,389.2z"/>
<path class="st6" d="M262,377.3c0,0,5.7-20.7,24.6-19.9c18.9,0.8,19.5,15,19.4,21.7c-0.2,6.7-10.4,24.3-30.5,21.7
	C259.7,395.9,262,377.3,262,377.3z"/>
<circle class="st4" cx="310.6" cy="548.5" r="2.6"/>
<circle class="st4" cx="221.8" cy="540.3" r="2.6"/>
<circle class="st4" cx="226.3" cy="556.8" r="2.6"/>
<circle class="st4" cx="211.5" cy="554.2" r="2.6"/>
<circle class="st4" cx="208.9" cy="533.4" r="2.6"/>
<circle class="st4" cx="209.9" cy="512" r="2.6"/>
<circle class="st4" cx="220.4" cy="524.8" r="2.6"/>
<circle class="st4" cx="318.4" cy="533.2" r="2.6"/>
<circle class="st4" cx="323.7" cy="547" r="2.6"/>
<circle class="st4" cx="338.2" cy="544.4" r="2.6"/>
<circle class="st4" cx="331.5" cy="524.3" r="2.6"/>
<circle class="st4" cx="344.1" cy="520.4" r="2.6"/>
<circle class="st4" cx="315.8" cy="562.2" r="2.6"/>
<circle class="st4" cx="328.9" cy="564.3" r="2.6"/>
<circle class="st4" cx="350.8" cy="540" r="2.6"/>
<circle class="st4" cx="356.6" cy="517.7" r="2.6"/>
<circle class="st4" cx="369.4" cy="518.4" r="2.6"/>
<circle class="st4" cx="365" cy="540" r="2.6"/>
<circle class="st4" cx="321.8" cy="573.5" r="2.6"/>
<circle class="st4" cx="336.7" cy="572.2" r="2.6"/>
<circle class="st4" cx="343.4" cy="561.7" r="2.6"/>
<path class="st3" d="M423.2,398.9c-26.4-16.3-33.6-36.9,4.6-71.1s70.2,2.2,27.8,54.5S423.2,398.9,423.2,398.9z"/>
<path class="st4" d="M500.7,413.2c0,0-16.7-30.2-49.7-30.8c0,0-32.4,13-40.4,32.6c-8,19.5,5.4,17.8,16.3,22.4
	c10.9,4.6,39.5,10,52.6-1.1C492.4,425.1,500.7,413.2,500.7,413.2z"/>
<path class="st6" d="M425,420.7c-0.8-17.6,19.5-27.9,23.9-29c4.4-1.1,31.3,2.9,37.1,23c0,0-7,20.2-34.5,20.2
	C427.5,434.8,425,420.7,425,420.7z"/>
<path class="st2" d="M537.4,682.5c0,0-75.6,33-89.5,14.8c-13.9-18.2,60.8-67.8,60.8-67.8l-40-29.3l50.4-57.6c0,0-98.7,38.1-111,14.3
	c-12.3-23.8-11.5-74.2-11.5-74.2s-35.3,98.8-101,37.7s-99-38.7-33.7-85.5c65.3-46.9,129.6-113.6,72.2-177.5
	c-58.6,24.4-108.9,69.2-137.2,121.2c-1.8,2.7-3.5,5.9-4.9,9.5c0,0,0,0,0,0.1c-2.9,5.9-5.5,11.9-7.8,18
	c-12.2,25.9-26.5,47.5-26.5,47.5l13-9.1c0,0-27.4,93.2-21.5,129.7l9.8-9.8c0,0,16.3,87.3,30.6,125.8l4.1-10.4l45.4,86l10.4-56.7
	l46.9,82.1l16.3-48.7l25.4,77.4l35.8-80.1c0,0,15.6,31.9,22.2,40.4l27.4-43c0,0,35.2,38.4,59.3,43.7l-9.1-42.4
	c0,0,42.4,25.4,69.7,23.5l-28.7-33.2L537.4,682.5z"/>
</svg>
