<svg xmlns="http://www.w3.org/2000/svg" viewBox="0 0 948.55 948.55"><title>mentalist</title><g id="Calque_2" data-name="Calque 2"><rect width="948.55" height="948.55" style="fill:#124e8a"/></g><g id="Calque_9" data-name="Calque 9"><path d="M765.56,434.15a60.07,60.07,0,0,0-58.71-60V356.94c0-61.95-30.93-117-78.11-150.54a184.1,184.1,0,0,0-107.45-34.55h0c-102,0-185.4,83.43-185.4,185.4v16.81a60.1,60.1,0,0,0,0,120.19v56.69a184,184,0,0,0,1.83,25.86v32.72c0,75.43,101.85,140.63,154.22,169.18h60.69C605,750.15,706.85,685,706.85,609.52V494.21A60.08,60.08,0,0,0,765.56,434.15Z" style="fill:#f9d3ca"/><circle cx="335.89" cy="434.15" r="21.13" style="fill:#d5b1ab"/><circle cx="705.47" cy="434.15" r="21.13" style="fill:#d5b1ab"/><path d="M558,372.28c22.15-55.54,58.48-75.69,79.48-53.91,0,0-11-33.22-57.33-6S558,372.28,558,372.28Z" style="fill:#614f43"/><path d="M486.54,372.28c-22.14-55.54-58.48-75.69-79.48-53.91,0,0,11-33.22,57.34-6S486.54,372.28,486.54,372.28Z" style="fill:#614f43"/><rect x="491.61" y="368.51" width="58.51" height="140.59" rx="29.25" ry="29.25" style="fill:#f4a797"/><path d="M521.29,171.85c-102,0-185.4,83.43-185.4,185.4v16.81a60.1,60.1,0,0,0,0,120.19v56.69a184,184,0,0,0,1.83,25.86v32.72c0,75.43,101.85,140.63,154.22,169.18h29.35Z" style="opacity:0.1"/><path d="M461.26,407c-10,0-18.94-3.11-25.27-8.07a25.59,25.59,0,0,0,50.55,0C480.21,403.89,471.23,407,461.26,407Z" style="fill:#db8cff"/><path d="M583.27,407c10,0,19-3.11,25.28-8.07a25.6,25.6,0,0,1-50.56,0C564.32,403.89,573.3,407,583.27,407Z" style="fill:#db8cff"/><g style="opacity:0.4"><path d="M461.26,402c-8.42,0-16.51-2.56-22.19-7l-10-7.85,2,12.57a30.59,30.59,0,0,0,60.43,0l2-12.57-10,7.85C477.78,399.44,469.69,402,461.26,402Z" style="fill:#ebbdff"/><path d="M605.47,395c-5.68,4.45-13.77,7-22.2,7s-16.52-2.56-22.19-7l-10-7.85,2,12.57a30.6,30.6,0,0,0,60.44,0l2-12.57Z" style="fill:#ebbdff"/></g></g><g id="Calque_8" data-name="Calque 8"><path d="M440.81,544c-17.7-18.39-46.77-20.72-67.61-5.42-2.51,1.84-5.16,3.76-7.59,5.21l-19.07,11.39,29.22-125.94a52.43,52.43,0,0,0-6.83-39.75,50.92,50.92,0,0,0-70.46-15.66c-.64.41-1.26.82-1.88,1.25A51.25,51.25,0,0,0,195,384.81v2.55a52.09,52.09,0,0,0-18-15.63,51.15,51.15,0,0,0-72.13,61.9l1.23,3.61a51.25,51.25,0,0,0-56.93,82.51l73.54,77.92v27.85A101.83,101.83,0,0,0,224.44,727.23l44.76,0a142.79,142.79,0,0,0,101.59-42.1l69.33-69.33a51.24,51.24,0,0,0,.69-71.77Z" style="fill:#ebbdff;opacity:0.4"/></g><g id="Calque_7" data-name="Calque 7"><path d="M886.82,369.86l-55.75-55.75a26.24,26.24,0,0,0-33.87-2.76L690.89,205a26.25,26.25,0,0,0-37.12,0h0a26.25,26.25,0,0,0,0,37.12l-6.95-6.94a26.23,26.23,0,0,0-37.12,0h0a26.25,26.25,0,0,0,0,37.12l55.85,55.85A26.07,26.07,0,0,0,653.78,335h0a26.23,26.23,0,0,0,0,37.12l0,0h0a26.25,26.25,0,0,0,0,37.12l77.89,77.89h0l9.37,9.37a35,35,0,0,0,49.5,0L863,424c.63-.63,1.22-1.28,1.78-1.94l.08.08h0C885.39,401.67,907.33,390.36,886.82,369.86Z" style="opacity:0.30000000000000004"/><path d="M842.07,314.11a26.24,26.24,0,0,0-33.87-2.76L701.89,205a26.25,26.25,0,0,0-37.12,0h0a26.25,26.25,0,0,0,0,37.12l-6.95-6.94a26.23,26.23,0,0,0-37.12,0h0a26.25,26.25,0,0,0,0,37.12l55.85,55.85A26.07,26.07,0,0,0,664.78,335h0a26.23,26.23,0,0,0,0,37.12l0,0h0a26.25,26.25,0,0,0,0,37.12l77.89,77.89,9.37,9.37a35,35,0,0,0,49.5,0L874,424c.63-.63,1.22-1.28,1.78-1.94l.08.08a52.5,52.5,0,0,0,0-74.24Z" style="fill:#f9d3ca"/><path d="M422.8,561.34c-9.25-9.6-24.32-10.3-34.8-2.6-3.12,2.29-6.25,4.54-9.57,6.52l-37.66,22.5a13.45,13.45,0,0,1-18.19-4.26l-4.23-6.58a94.88,94.88,0,0,1,2.45-21.43L351.41,423.6c3.32-14.34-5.61-29.14-20-32.19a26.25,26.25,0,0,0-31,19.75l-27,116.44a.44.44,0,0,1-.86-.1V384.81a26.25,26.25,0,0,0-26.25-26.25h0A26.25,26.25,0,0,0,220,384.81v143.5a.42.42,0,0,1-.82.13L178.38,409.07c-4.62-13.53-19.15-21.34-32.8-17.09a26.25,26.25,0,0,0-17.05,33.56L162.3,524.3a.86.86,0,0,1-1.44.87l-55.32-58.62a26.26,26.26,0,0,0-37.11-1.07h0a26.26,26.26,0,0,0-1.07,37.11l78.14,82.79a8.12,8.12,0,0,1,2.22,5.59v34.55a76.72,76.72,0,0,0,76.71,76.71l44.76,0a118.76,118.76,0,0,0,83.92-34.77l69.33-69.34A26.25,26.25,0,0,0,422.8,561.34Z" style="fill:#f9d3ca"/><path d="M664.22,335.57c.18-.2.36-.4.56-.59A4.77,4.77,0,0,0,664.22,335.57Z" style="fill:none"/><path d="M657.82,235.22l-.43-.41c2.42,2.4,4.87,4.85,7.38,7.35Z" style="opacity:0.1"/><path d="M670,353.66c-10.4-10.4-7.27-16.31-5.81-18.09a26.24,26.24,0,0,0,.56,36.53l0,0h0a26.25,26.25,0,0,0,0,37.12l77.89,77.89,9.37,9.37a35,35,0,0,0,49.5,0l37.16-37.17h0C793.38,504.68,682.69,366.32,670,353.66Z" style="opacity:0.1"/><path d="M752.14,310.32s-58.61-67.5-74.45-83.33-12.92-22-12.92-22a26.25,26.25,0,0,0,0,37.12C744.56,322,752.14,310.32,752.14,310.32Z" style="opacity:0.1"/><path d="M649,280.66C613.36,245,620.7,235.22,620.7,235.22a26.25,26.25,0,0,0,0,37.12l55.85,55.85,39.14,25.47S684.69,316.32,649,280.66Z" style="opacity:0.1"/><path d="M808.2,311.35l64.71,64.71S818.85,314.87,831,307.51A26.54,26.54,0,0,0,808.2,311.35Z" style="opacity:0.1"/></g><g id="Calque_6" data-name="Calque 6"><ellipse cx="245.75" cy="445.16" rx="18.95" ry="79.5" style="fill:#ebbdff;opacity:0.4"/><ellipse cx="169.37" cy="464.49" rx="18.95" ry="68.04" transform="translate(-147.03 84.59) rotate(-19.76)" style="fill:#ebbdff;opacity:0.4"/><ellipse cx="314.76" cy="470.68" rx="68.04" ry="18.95" transform="translate(-217.5 663.85) rotate(-76.18)" style="fill:#ebbdff;opacity:0.4"/><ellipse cx="378.36" cy="600.11" rx="51.33" ry="26.71" transform="translate(-291.02 365.12) rotate(-38.43)" style="fill:#ebbdff;opacity:0.4"/><ellipse cx="117.94" cy="517.59" rx="18.95" ry="61.39" transform="translate(-331.45 235) rotate(-45)" style="fill:#ebbdff;opacity:0.4"/><path d="M166.69,605.16c-8-30.55,3.5-63,30-65.5s104,2,110,20-67.29,48.5-79.89,62.5S172.69,628.16,166.69,605.16Z" style="fill:#ebbdff;opacity:0.4"/><path d="M320.19,598.91c-8.15-15.06-24.5-16.5-49,2.5s-70.25,59.19-36.75,80,85.75,4,96.5-9.25S326.69,610.91,320.19,598.91Z" style="fill:#ebbdff;opacity:0.4"/></g></svg>