<?xml version="1.0" encoding="utf-8"?>
<!-- Generator: Adobe Illustrator 22.0.0, SVG Export Plug-In . SVG Version: 6.00 Build 0)  -->
<svg version="1.1" xmlns="http://www.w3.org/2000/svg" xmlns:xlink="http://www.w3.org/1999/xlink" x="0px" y="0px"
	 viewBox="0 0 948.5 948.5" style="enable-background:new 0 0 948.5 948.5;" xml:space="preserve">
<style type="text/css">
	.st0{fill:#124E8A;}
	.st1{fill:#CDAE9B;}
	.st2{fill:#1E2326;}
	.st3{fill:#E9DECF;}
	.st4{opacity:0.5;}
	.st5{fill:#1D1D1B;}
	.st6{opacity:0.5;fill:#1D1D1B;}
	.st7{fill:none;stroke:#CDAE9B;stroke-width:2;stroke-miterlimit:10;}
	.st8{fill:none;}
	.st9{fill:#5BAB2F;}
	.st10{opacity:0.5;fill:#FFFFFF;}
	.st11{fill:#0D0D0D;}
	.st12{fill:#00354E;}
	.st13{opacity:0.2;fill:#FFFFFF;}
	.st14{fill:#F5B7C7;}
	.st15{fill:#EA5764;}
	.st16{fill:#F0909F;}
	.st17{fill:#E6313B;}
	.st18{opacity:0.5;fill:#E5007E;}
</style>
<g id="Calque_2">
	<g>
		<rect class="st0" width="948.5" height="948.5"/>
	</g>
</g>
<g id="Calque_6">
	<g>
		<path class="st1" d="M349.3,374.9L331,410.7l11.3,6.3l22.7,34.3l5.2,28.3l-12.9,31.8l-19,28.1l-11,6.9l-10.9-2.2l10.9,2.2
			l-2.6,5.1l-4.4,8.7l-22.1,11.4l-13.8,24.8c0,0-36.1,10.9-36.6,10.9c-0.2,0-2.9-1.4-6.4-3.2c-7-3.6-17.4-8.9-17.4-8.9
			s-10.4-5.2-17.4-8.8c-3.5-1.8-6.2-3.2-6.3-3.3c-0.4-0.4-12.7-36-12.7-36l12-25.7l-3.7-24.5l4.4-8.7l2.6-5.1l8.2,7.5l-8.2-7.5
			l-0.9-13l11.6-31.9l18.2-29.1l26-12.4l41.1-1.7l11.7,5.5l18.3-35.8L349.3,374.9 M350.2,373.1l-20.3-10.3c-1-0.5-2.2-0.1-2.7,0.9
			l-17.4,34.1l-10-4.7c-0.3-0.1-0.6-0.2-0.9-0.2l-41.1,1.7c-0.3,0-0.5,0.1-0.8,0.2l-26,12.4c-0.3,0.2-0.6,0.4-0.8,0.7L212,436.9
			c-0.1,0.1-0.1,0.2-0.2,0.4l-11.6,31.9c-0.1,0.3-0.1,0.5-0.1,0.8l0.8,12.4l-2.4,4.7l-4.4,8.7c-0.2,0.4-0.3,0.8-0.2,1.2l3.7,23.9
			L185.8,546c-0.2,0.5-0.2,1-0.1,1.5c12.4,36.1,12.7,36.4,13.1,36.8c0.3,0.3,0.4,0.4,6.8,3.7c7,3.6,17.3,8.8,17.4,8.8
			c0.1,0,10.4,5.4,17.3,8.9c6.4,3.3,6.6,3.3,7,3.4c0.6,0.1,1,0.1,37.5-10.9c0.5-0.2,0.9-0.5,1.2-0.9l13.5-24.2l21.5-11.1
			c0.4-0.2,0.7-0.5,0.9-0.9l4.4-8.7l2.4-4.7l10.5-6.6c0.2-0.1,0.4-0.3,0.6-0.6l19-28.1c0.1-0.1,0.1-0.2,0.2-0.4l12.9-31.8
			c0.1-0.4,0.2-0.7,0.1-1.1l-5.2-28.3c0-0.3-0.2-0.5-0.3-0.7L344,415.9c-0.2-0.3-0.4-0.5-0.7-0.6l-9.6-5.4l17.4-34.1
			C351.5,374.8,351.1,373.6,350.2,373.1L350.2,373.1z"/>
		<g>
			<path class="st2" d="M228.7,491.7c-1.2-0.6-17.1-2.8-17.1-2.8l-6.2,18l-1.9,19.1l3.7,15c0,0,15.5-4.4,16.9-5.6
				c1.4-1.2,12.7-19.7,12.7-19.7L228.7,491.7z"/>
			<path class="st2" d="M305,530.7c1.2,0.6,12.3,12.3,12.3,12.3l-10.9,15.6L292,571.2l-14.4,5.8c0,0-5.5-15.2-5.4-17
				c0.2-1.8,8.5-21.8,8.5-21.8L305,530.7z"/>
			<polygon class="st3" points="370.2,479.6 365,451.3 342.3,417 321,405.2 298.9,394.9 257.9,396.5 231.9,408.9 213.7,438 
				202.1,469.9 202.9,482.8 223.6,501.8 227.7,511.7 226.4,516.9 238.6,534.3 251.6,541 264.7,547.7 286,547.3 289.4,543.3 
				299.9,540.8 327.3,546.4 338.3,539.4 357.4,511.3 			"/>
			<path class="st2" d="M234.8,447.7c0.3-0.1,25.5-1.1,25.5-1.1l9.5,5.5l5.6,11.8l-11.2,15l-8.5,3.4l-9.5,0l-12.7-4.5L228,465
				L234.8,447.7z"/>
			<path class="st2" d="M286.4,495.9l-2.6-17.6l-15.8,8.2l-12.2,13.2c0,0-0.4,10.6-0.5,11.1c-0.1,0.5,0.9,5.1,0.9,5.1l4.5,0.2
				l8.7-9.5l-2.6,12.6l2.8,3.5c0,0,4.3-1.9,4.7-2.3s8.7-6.9,8.7-6.9L286.4,495.9z"/>
			<path class="st2" d="M337.1,499.9c-0.1-0.3-14.1-21.3-14.1-21.3l-10.1-4.5l-12.8,2.4l-5.6,17.9l2.2,8.9l5.5,7.7l11.2,7.7l13.6-3
				L337.1,499.9z"/>
			<path class="st3" d="M310.7,543l-3.2,3.3l-8.4,8.5l-1,6.6l-5.2,2.6l-2.8,5.9l-11.9,0.1l-12.9,5l-13.3-4.4l-10.5-9.9l-14.1-2.7
				l-11.3-8.2l-3.5-13.4l-6.8-9.7l3.1-5.7l-1-5.7l4.8-4.7l2-11.8l0.8-4.5l-12.5-11.5l-2.6,5.1l-4.4,8.7l3.7,24.5l-12,25.7
				c0,0,12.3,35.7,12.7,36c0.4,0.4,23.7,12.1,23.7,12.1s23.2,12,23.7,12.1c0.5,0.1,36.6-10.9,36.6-10.9l13.8-24.8l22.1-11.4l4.4-8.7
				l2.6-5.1L310.7,543z"/>
			<polygon class="st3" points="282.3,554.6 283.3,552.6 286,547.3 253.6,537.2 226.4,516.9 223.7,522.1 222.6,524.1 207.3,528.9 
				217.3,561.8 237.6,568.5 255,581.1 287.5,569.8 			"/>
			<path class="st3" d="M210.3,543.7"/>
			<path class="st3" d="M242.7,553.9"/>
			<g class="st4">
				<path class="st5" d="M210.1,523.3c2,5.4,3.9,10.8,5.8,16.2c0.9,2.7,1.9,5.4,2.7,8.2c0.9,2.7,1.8,5.4,2.7,8.2l-0.8-0.9
					c3.4,1.1,6.8,2.1,10.2,3.2l10.2,3.3l0.2,0.1l0.2,0.1l8.6,6.3c2.9,2.1,5.7,4.3,8.6,6.4l-1.2-0.2c2.7-0.9,5.5-1.8,8.2-2.6
					c2.7-0.9,5.5-1.7,8.2-2.6c5.5-1.7,11-3.3,16.5-4.8c-5.3,2.2-10.6,4.4-16,6.4c-2.7,1-5.4,2.1-8,3.1c-2.7,1-5.4,2-8.1,3l-0.6,0.2
					l-0.6-0.4c-2.9-2.1-5.9-4.1-8.7-6.2l-8.7-6.3l0.4,0.2l-10.2-3.4c-3.4-1.1-6.8-2.3-10.1-3.5l-0.7-0.2l-0.2-0.6
					c-0.8-2.8-1.5-5.5-2.3-8.3c-0.8-2.8-1.5-5.5-2.2-8.3C212.8,534.5,211.4,528.9,210.1,523.3z"/>
			</g>
			<polygon class="st6" points="253.6,537.2 226.4,516.9 223.7,522.1 233.1,540.4 248.1,548 263,555.6 283.3,552.6 286,547.3 			"/>
			<path class="st6" d="M215.4,494.3l-12.5-11.5l-2.6,5.1c6.3,4.6,13.8,10.2,14.4,10.9L215.4,494.3z"/>
		</g>
		
			<rect x="307.1" y="364.7" transform="matrix(0.8906 0.4548 -0.4548 0.8906 221.3491 -99.9918)" class="st3" width="22.8" height="90.7"/>
		<g>
			<path class="st3" d="M357.6,386c-1.1,0-2.1-0.2-3.1-0.7l-37.1-18.9c-1.6-0.8-2.8-2.2-3.4-4s-0.4-3.6,0.4-5.2
				c1.2-2.3,3.5-3.7,6.1-3.7c1.1,0,2.1,0.2,3.1,0.7l37.1,18.9c1.6,0.8,2.8,2.2,3.4,4s0.4,3.6-0.4,5.2
				C362.6,384.6,360.2,386,357.6,386z"/>
			<path class="st1" d="M320.6,354.9L320.6,354.9c0.8,0,1.6,0.2,2.4,0.6l37.1,18.9c2.6,1.3,3.7,4.6,2.3,7.2
				c-0.9,1.8-2.7,2.9-4.8,2.9c-0.8,0-1.6-0.2-2.4-0.6L318.2,365c-2.6-1.3-3.7-4.6-2.3-7.2C316.8,356,318.6,354.9,320.6,354.9
				 M320.6,351.9c-3,0-6,1.7-7.4,4.5c-2.1,4.1-0.5,9.1,3.6,11.2l37.1,18.9c1.2,0.6,2.5,0.9,3.8,0.9c3,0,6-1.7,7.4-4.5h0
				c2.1-4.1,0.5-9.1-3.6-11.2l-37.1-18.9C323.2,352.2,321.9,351.9,320.6,351.9L320.6,351.9z"/>
		</g>
	</g>
	<line class="st7" x1="310" y1="398.9" x2="332.1" y2="410.2"/>
</g>
<g id="Calque_7">
	<path class="st8" d="M221.7,594c1.4,0.7,2.3,1.2,2.3,1.2s0.1,0,0.3,0.1c-0.2-0.1-0.3-0.1-0.3-0.1S223.2,594.7,221.7,594z"/>
	<path class="st8" d="M226.2,596.3c-0.4-0.2-0.8-0.4-1.2-0.6C225.4,595.9,225.8,596.1,226.2,596.3z"/>
	<path class="st8" d="M241.4,604.1c0.2,0.1,0.3,0.2,0.4,0.2c-0.4-0.2-0.8-0.4-1.3-0.7C240.9,603.8,241.1,604,241.4,604.1z"/>
	<path class="st8" d="M187.6,547c0,0,0.1,0.4,0.4,1.2C187.8,547.4,187.6,547,187.6,547l6.4-13.7L187.6,547z"/>
	<polygon class="st8" points="213.7,438.1 202.1,470 202.9,483 200.3,488.1 195.9,496.8 199.6,521.3 195.9,496.8 200.3,488.1 
		202.9,483 202.1,470 213.7,438.1 231.9,409 	"/>
	<path class="st8" d="M206.6,586.3c0.1,0.1,0.2,0.1,0.3,0.2c-0.6-0.3-1.3-0.6-1.8-0.9C205.6,585.8,206.1,586.1,206.6,586.3z"/>
	<path class="st8" d="M284.4,596.4C284.4,596.4,284.4,596.4,284.4,596.4l5-8.9L284.4,596.4C284.4,596.4,284.4,596.4,284.4,596.4z"/>
	<path class="st8" d="M247.1,607c-0.3-0.1-0.6-0.3-1-0.5C246.5,606.7,246.8,606.8,247.1,607z"/>
	<polygon class="st8" points="323.2,554.5 324.7,551.6 325.6,549.9 324.7,551.6 	"/>
	<path class="st8" d="M255.1,605.2c-0.8,0.2-1.6,0.5-2.3,0.7C253.5,605.7,254.3,605.5,255.1,605.2z"/>
	<path class="st8" d="M284.1,596.5c-0.1,0-0.3,0.1-0.5,0.1C283.9,596.6,284,596.5,284.1,596.5z"/>
	<path class="st4" d="M372.2,479.2l-5.2-28.3c0-0.3-0.2-0.5-0.3-0.7L344,415.9c-0.2-0.3-0.4-0.5-0.7-0.6l-9.6-5.4l13.6-26.7l6.6,3.4
		c4.1,2.1,9.1,0.5,11.2-3.6c2.1-4.1,0.5-9.1-3.6-11.2l-18-9.2c0.7,2.3-0.7,13.3-6.3,15.4l-17.1,30L322,436l-14.5,19.8V475l-7.3,1.4
		l-5.5,18.2l-8.3,1.4l-3.6,17.5l-13.6-6.8l-16.1,30.2l-12.2-9l-16.2,28.9l-2.8,1.7l-7,34.6c4.4,2.2,8,4,8.1,4.1
		c0.1,0,10.4,5.4,17.3,8.9c6.4,3.3,6.6,3.3,7,3.4c0.6,0.1,1,0.1,37.5-10.9c0.5-0.2,0.9-0.5,1.2-0.9l13.5-24.2l21.5-11.1
		c0.4-0.2,0.7-0.5,0.9-0.9l4.4-8.7l2.4-4.7l10.5-6.6c0.2-0.1,0.4-0.3,0.6-0.6l19-28.1c0.1-0.1,0.1-0.2,0.2-0.4l12.9-31.8
		C372.2,479.9,372.3,479.6,372.2,479.2z M224.1,595c0,0-0.9-0.4-2.3-1.2C223.2,594.6,224.1,595,224.1,595c0,0,0.1,0,0.3,0.1
		C224.2,595.1,224.1,595,224.1,595z M225.1,595.6c0.3,0.2,0.7,0.4,1.2,0.6C225.8,595.9,225.4,595.7,225.1,595.6z M241.4,604
		c-0.3-0.1-0.6-0.3-0.8-0.4c0.4,0.2,0.9,0.4,1.3,0.7C241.7,604.1,241.6,604.1,241.4,604z M246.1,606.4c0.4,0.2,0.7,0.3,1,0.5
		C246.8,606.7,246.5,606.5,246.1,606.4z M252.8,605.8c0.7-0.2,1.5-0.4,2.3-0.7C254.3,605.3,253.5,605.6,252.8,605.8z M283.7,596.5
		c0.2-0.1,0.4-0.1,0.5-0.1C284,596.4,283.9,596.5,283.7,596.5z M284.4,596.3C284.4,596.3,284.4,596.3,284.4,596.3
		C284.4,596.3,284.4,596.3,284.4,596.3l4.9-8.9L284.4,596.3z M324.7,551.5l-1.5,2.9L324.7,551.5l0.9-1.7L324.7,551.5z"/>
	<circle class="st9" cx="347.5" cy="326" r="22.1"/>
	<circle class="st10" cx="341.3" cy="317.5" r="10.8"/>
	<circle class="st9" cx="387.2" cy="292.6" r="14.1"/>
	<circle class="st10" cx="383.2" cy="287.1" r="6.9"/>
	<circle class="st9" cx="358.6" cy="251.8" r="8.1"/>
	<circle class="st10" cx="356.4" cy="248.7" r="4"/>
</g>
<g id="Calque_5">
	<path class="st11" d="M818.6,338c0,0-188.3-121.3-230.1-110.7C546.7,238,282.2,620.5,282.2,620.5l372.3,68c-0.3-0.8-0.7-1.7-1-2.8
		c-11.3-41.4,8.7-320.5,8.7-320.5l37.9-5.8l-4.9-15.5L818.6,338z"/>
	<path class="st12" d="M597.2,549.7c-25.4-0.7-56.3-2.4-88.1-6.1c-77.5-9.1-154.4-37.1-154.4-37.1l-65.2,93.9
		c0,0,156.2,60.4,163.5,63s205.7,25.1,205.7,25.1s0-0.4,0-1.1c0-12.9,0-135.8,0-136.9C658.7,549.8,633.7,550.7,597.2,549.7z"/>
	<path class="st11" d="M812.7,698.6c0,0-98.2-10.4-208-28.7c-59.4-9.9-122.3-22.1-174.8-36.1c-149.5-40-299.5-75-299.5-75
		c-9.5,24,110.7,101.9,379.3,139.8c63.6,9,114.1,15,154.2,18.7C793.1,729.1,813.3,716.4,812.7,698.6z"/>
	<path class="st6" d="M658.7,678.5c0-31.5,0-127.1,0-128c0-0.2-2.5-0.3-6.9-0.3c3.4-88.1,10.3-184.9,10.3-184.9l37.9-5.8l-4.9-15.5
		l123.3-5.8l-165.3-30.3l16.7,30.3l-52.4,13.3l-20.4,198.3l16.8,9.2l-9.2,111.1l48.8,15.7c0-0.1,0-0.1,0-0.2l5.4,1.7l0,0l19.3,6.2
		l-18.7,20.6l4.7,3.2c129,11.8,149.3-0.9,148.7-18.7C812.7,698.6,744.8,691.4,658.7,678.5z"/>
	<path class="st8" d="M616,230.6c-0.2,0-0.3-0.1-0.5-0.1c0.7,0.2,1.5,0.4,2.2,0.7C617.2,230.9,616.6,230.8,616,230.6z"/>
	<path class="st10" d="M613.6,229.9c0.6,0.2,1.2,0.4,1.8,0.5C614.9,230.3,614.2,230.1,613.6,229.9z"/>
	<path class="st13" d="M621,672.4c-3.4-1.9-140.4-28.2-315.5-70.9c0,0,54.7-84.5,58.9-84.9c4.2-0.5,15.7-1.8,15.7-1.8
		S579.4,255.5,597.1,254c17-1.4,35.9-17.6,20.6-22.9c-0.8-0.2-1.5-0.4-2.2-0.7c-0.7-0.2-1.3-0.4-1.8-0.5c-10.7-3-19.4-4.1-25.3-2.6
		c-26.8,6.9-145.9,167.5-227.4,281.3c-4.1-1.4-6.3-2.2-6.3-2.2l-63.5,91.5c-91.4-22.9-160.8-39.1-160.8-39.1
		C162.3,588.5,663.4,696.7,621,672.4z"/>
</g>
<g id="Calque_9">
	<g>
		<path class="st14" d="M694.3,662.1l31.8-42.8l-12.5-54.9l-72.6,1.5l10.5-71.9l-52.9-19.3L552.2,501c0,0,0.1,0.3,0,0
			c-0.1-0.3-23.3,51-23.3,51l5,108.4l106.9,18.4C640.8,678.9,694.6,662.2,694.3,662.1C694,661.9,694.3,662.1,694.3,662.1z"/>
		<polygon class="st15" points="533.8,660.9 528.7,552.5 552.2,557.9 554.4,642.7 		"/>
		<path class="st16" d="M571.3,516.7l-19.2,41.3l-23.4-5.4c0,0,23.2-51.3,23.3-51C552.2,501.8,571.3,516.7,571.3,516.7z"/>
		<polygon class="st14" points="552.1,501.5 598.4,475.3 593.2,503.2 571.3,516.7 		"/>
		<polygon class="st16" points="593.2,503.2 628.9,515.8 651.4,494.5 598.4,475.3 		"/>
		<polygon class="st15" points="640.8,566.4 651.4,494.5 628.9,515.8 620.1,584.8 		"/>
		<polygon class="st14" points="554.4,642.7 552.2,557.9 571.3,516.7 593.2,503.2 628.9,515.8 620.1,584.8 		"/>
		<polygon class="st17" points="533.8,660.9 640.7,679.4 638.2,655.5 554.4,642.7 		"/>
		<path class="st15" d="M681.5,641.6l-43.3,13.9l2.5,23.9c0,0,53.8-16.6,53.5-16.8C693.9,662.4,681.5,641.6,681.5,641.6z"/>
		<polygon class="st17" points="694.2,662.6 726,619.8 697.6,621.5 681.5,641.6 		"/>
		<polygon class="st15" points="697.6,621.5 689.6,584.6 713.5,564.9 726,619.8 		"/>
		<polygon class="st16" points="640.8,566.4 713.5,564.9 689.6,584.6 620.1,584.8 		"/>
		<polygon class="st14" points="554.4,642.7 638.2,655.5 681.5,641.6 697.6,621.5 689.6,584.6 620.1,584.8 		"/>
		<polygon class="st14" points="694.8,518.5 686.3,508.9 643.8,546.5 656.4,552.4 		"/>
		<polygon class="st16" points="694.8,518.5 656.4,552.4 643.8,546.5 620.1,584.8 661,566 703.6,528.4 		"/>
		<g>
			<path class="st16" d="M708.3,536.2l-18.2-20.6c-2.4-2.7-2.1-6.8,0.6-9.2l2-1.7c2.7-2.4,6.8-2.1,9.2,0.6l18.2,20.6
				c2.4,2.7,2.1,6.8-0.6,9.2l-2,1.7C714.8,539.2,710.7,538.9,708.3,536.2z"/>
			<path class="st14" d="M697.3,523.8l-18.2-20.6c-2.4-2.7-2.1-6.8,0.6-9.2l2-1.7c2.7-2.4,6.8-2.1,9.2,0.6l18.2,20.6
				c2.4,2.7,2.1,6.8-0.6,9.2l-2,1.7C703.8,526.7,699.7,526.5,697.3,523.8z"/>
		</g>
		<path class="st18" d="M702.3,505.8c14.6,16.6-3.4,16,0.1,23.7c0,0-26.9,2.6-20.8,22.2c0,0-26.4,7-15.3,31c0,0,27.3,26.5-18.2,28.2
			s-54.5,11.3-34.8,31.8c0,0-32,26.2-0.6,31.8s58.4-3.6,74.1,5.9s51.5,6,43.2-12.8s30.6-52.4,10-64.5c-20.6-12.1,12-62-2-63.5
			c-14-1.5,5.2-38.7-8.5-39.2s-27.3-30-35.4-18.8s0,14.9,0,14.9L702.3,505.8z"/>
	</g>
</g>
</svg>
