<svg id="Calque_1" data-name="Calque 1" xmlns="http://www.w3.org/2000/svg" viewBox="0 0 943.99 943.99">
  <defs>
    <style>
      .cls-1 {
        fill: #1e4683;
      }

      .cls-2 {
        fill: #fbdad4;
      }

      .cls-3 {
        fill: #f3ada0;
      }

      .cls-4 {
        fill: #669a30;
      }

      .cls-5 {
        fill: #693221;
      }

      .cls-6 {
        fill: #debab5;
      }

      .cls-7 {
        fill: #12100b;
        opacity: 0.1;
      }

      .cls-8 {
        fill: #a67843;
      }

      .cls-9 {
        fill: #d0cfe6;
      }
    </style>
  </defs>
  <title>villager</title>
  <g id="Villager">
    <rect class="cls-1" width="943.99" height="943.99"/>
    <g>
      <g>
        <path class="cls-2" d="M684.52,468.15c0-34.29-21.69-62.1-55.93-62.32V381.71c0-107.44-87.9-195.34-195.34-195.34h0c-107.44,0-195.34,87.9-195.34,195.34v24.11a62.34,62.34,0,1,0,0,124.68v60.68c0,107.44,87.9,195.34,195.34,195.34h0c107.44,0,195.34-87.9,195.34-195.34v-60.7C662.83,530.25,684.52,502.44,684.52,468.15Z"/>
        <rect class="cls-3" x="402.09" y="399.16" width="62.34" height="148.38" rx="31.17" ry="31.17"/>
        <circle class="cls-4" cx="496.85" cy="427.01" r="27.02"/>
        <rect class="cls-5" x="450.8" y="372.79" width="80.81" height="26.19" rx="13.1" ry="13.1" transform="translate(-59.55 91.16) rotate(-10)"/>
        <rect class="cls-5" x="361.8" y="345.48" width="26.19" height="80.81" rx="13.1" ry="13.1" transform="translate(-70.23 688.08) rotate(-80)"/>
        <circle class="cls-4" cx="368.42" cy="427.01" r="27.02"/>
        <path class="cls-5" d="M434.48,561.6h0L278.95,589a78.92,78.92,0,0,0,155.53-.38A78.92,78.92,0,0,0,590,589Z"/>
        <path class="cls-5" d="M640.23,368.41S656.86,247,496.85,191.35c-53.67-18.68-102.22-14.24-143.08,3.39-14.35-14.32-31.06-39.14-31.06-39.14-3.34,18.72,6.74,41.17,10.83,49.26-1,.58-2,1.18-3,1.78-25.41-8.9-40.22-44.39-40.22-44.39-6.58,28.13,6.62,51.44,14.55,62.34-51.92,42.16-82.71,105.56-82.71,153.78,0,0,118-6.65,163.75-108.89,0,0,57.36,79.8,123.85,85.62,0,0-23.76-48.21-18.53-64.84C491.2,290.27,577.06,365.91,640.23,368.41Z"/>
        <circle class="cls-6" cx="628.18" cy="468.15" r="22.13"/>
        <circle class="cls-6" cx="237.92" cy="468.15" r="22.13"/>
        <path class="cls-7" d="M433,179.39a186.77,186.77,0,0,0-79.28,15.36c-14.35-14.32-31.06-39.14-31.06-39.14-3.34,18.72,6.74,41.17,10.83,49.26-1,.58-2,1.18-3,1.78-25.41-8.9-40.22-44.39-40.22-44.39-6.58,28.13,6.62,51.44,14.55,62.34-51.92,42.16-82.71,105.56-82.71,153.78A157.54,157.54,0,0,0,238,376.32c0,1.79-.14,3.58-.14,5.38v24.11a62.34,62.34,0,1,0,0,124.68v60.68c0,107.37,87.79,195.22,195.13,195.33Z"/>
      </g>
      <path class="cls-8" d="M672.34,354.08h0c-10,0-18.18,10.48-18.18,23.3V862.84c0,12.81,8.18,23.3,18.18,23.3h0c10,0,18.18-10.48,18.18-23.3V377.38C690.52,364.57,682.34,354.08,672.34,354.08Z"/>
      <path class="cls-9" d="M760.94,44.52l-7.52,50.32V229.59c0,32.07,0,31.83-23.92,31.91-20.2,0-20.2.15-20.2-31.91V94.84l-7.52-50.32-7.52,50.32h0v149.5l-3.73,3.73v1.69a18.89,18.89,0,0,0-16.9-10.59h-2.55a18.89,18.89,0,0,0-16.9,10.59v-1.69l-3.73-3.73V94.84h0l-7.52-50.32-7.52,50.32V229.59c0,32.06,0,31.91-20.2,31.91-23.92-.09-23.92.16-23.92-31.91V94.84l-7.52-50.32-7.52,50.32V229.59c0,46.94,0,46.94,59.17,46.94h16.83v98h40.25v-98H709.3c59.17,0,59.17,0,59.17-46.94V94.84Z"/>
      <path class="cls-7" d="M591.6,656.12h-9.29A14.34,14.34,0,0,0,568,670.41V724a14.07,14.07,0,0,0,1.68,6.57,197.15,197.15,0,0,0,36.2-48.37v-11.8A14.34,14.34,0,0,0,591.6,656.12Z"/>
      <rect class="cls-2" x="571.22" y="656.12" width="37.88" height="82.19" rx="14.29" ry="14.29"/>
      <path class="cls-7" d="M607.89,664.72a33.94,33.94,0,0,0-2,11.4v56.77a14.14,14.14,0,0,0,3.2-8.88V676A194,194,0,0,0,620,648.48,34.56,34.56,0,0,0,607.89,664.72Z"/>
      <rect class="cls-2" x="609.1" y="641.82" width="126.5" height="143.65" rx="34.3" ry="34.3"/>
    </g>
  </g>
</svg>
