<?xml version="1.0" encoding="utf-8"?>
<!-- Generator: Adobe Illustrator 22.0.0, SVG Export Plug-In . SVG Version: 6.00 Build 0)  -->
<svg version="1.1" id="Calque_1" xmlns="http://www.w3.org/2000/svg" xmlns:xlink="http://www.w3.org/1999/xlink" x="0px" y="0px"
	 viewBox="0 0 1000 1000" style="enable-background:new 0 0 1000 1000;" xml:space="preserve">
<style type="text/css">
	.st0{fill:#124E8B;}
	.st1{fill:#E7F3FD;}
	.st2{fill:#ACD3F1;}
	.st3{fill:#7BBAE7;}
	.st4{fill:#FFFFFF;}
	.st5{fill:#FBDAD4;}
	.st6{fill:#F7BAAB;}
	.st7{fill:#634A99;}
	.st8{fill:#BD1739;}
	.st9{fill:#F6B8D1;}
	.st10{fill:#F18700;}
	.st11{fill:#E6107B;}
	.st12{fill:#37B8DF;}
	.st13{fill:#5AA732;}
	.st14{fill:#C21718;}
	.st15{fill:#684092;}
	.st16{fill:#FFD800;}
	.st17{fill:#9E1A18;}
	.st18{opacity:5.000000e-02;fill:#12100B;}
</style>
<rect class="st0" width="1000" height="1000"/>
<g>
	<g>
		<path class="st1" d="M678.8,400.1h53.4c0-0.1,0-0.3,0-0.4l0,0c0.2-2.3,0.3-4.6,0.4-6.9c0.1-3.1,0.2-6.3,0.2-9.4
			c0-4-0.1-8-0.3-11.9c0-0.3,0-0.6-0.1-1c-0.2-3.6-0.5-7.1-0.8-10.6c-0.1-0.6-0.1-1.2-0.2-1.7c-0.4-3.3-0.8-6.6-1.3-9.9
			c-0.1-0.5-0.2-1-0.2-1.5c-0.6-3.5-1.2-7.1-1.9-10.5c0-0.2-0.1-0.4-0.1-0.5c-3.1-15.2-7.7-30-13.6-44c-0.1-0.2-0.1-0.3-0.2-0.5
			c-1.4-3.4-3-6.7-4.5-10.1c0-0.1-0.1-0.2-0.1-0.2c-38.2-79.2-119.3-133.8-213.1-133.8c-76.4,0-144.3,36.3-187.5,92.5
			c-1,1.3-2.1,2.7-3.1,4.1c-1,1.4-2,2.8-2.9,4.1c-1.1,1.5-2.2,3.1-3.2,4.6c-0.7,1-1.3,2-1.9,3c-2.5,3.8-4.8,7.7-7.1,11.6
			c-0.4,0.8-0.9,1.5-1.3,2.3c-1.1,2-2.2,4.1-3.2,6.1c-0.5,1-1.1,2.1-1.6,3.1c-1,2-2,4.1-2.9,6.2c-0.5,1.1-1,2.1-1.4,3.2
			c-0.9,2.1-1.9,4.3-2.7,6.4c-0.4,1-0.8,2-1.2,3c-0.9,2.3-1.8,4.6-2.6,6.9c-0.2,0.6-0.4,1.2-0.6,1.7c-2.9,8.4-5.4,17-7.3,25.8
			c-0.1,0.5-0.2,1-0.3,1.5c-0.6,2.7-1.1,5.4-1.6,8.1c-0.1,0.8-0.3,1.5-0.4,2.3c-0.5,2.7-0.9,5.4-1.2,8.2c-0.1,0.7-0.2,1.3-0.3,2
			c-0.4,2.9-0.7,5.8-0.9,8.8c0,0.2,0,0.4,0,0.6c-0.6,6.6-0.9,13.3-0.9,20.1c0,5.5,0.3,11,0.6,16.5l-0.1,0.2c0,0.1,0,0.1,0,0.2H314
			c0,114.6,110.2,131.6,110.2,131.6v76.9c22.7,7.3,47,11.2,72.1,11.2c25.2,0,49.5-4,72.2-11.3v-76.9
			C568.6,531.7,678.8,514.7,678.8,400.1z"/>
		<path class="st2" d="M261.1,360.2c0,0,21.5,40.3,52.9,39.9c0,0,33.1,124.6,182.4,124.6s182.4-124.6,182.4-124.6s35.6-2,52.8-40.2
			c0,0,24.3,171.8-163.1,171.8c0,0-6.6,72.7-72.7,72.7s-71.7-72.7-71.7-72.7S245.2,556.3,261.1,360.2z"/>
		<path class="st3" d="M495.9,604.4c-66.1,0-71.7-72.7-71.7-72.7v76.9c22.7,7.3,47,11.2,72.1,11.2c25.2,0,49.5-4,72.2-11.3v-76.9
			C568.6,531.7,561.9,604.4,495.9,604.4z"/>
		<path class="st4" d="M497.7,159.2c0,0,67.9-0.5,85.5,20.3c17.6,20.8-15.5,19.8-27.3,14.4s-57.2-5.9-57.2-5.9s-47.6,0.5-59.3,5.9
			c-11.8,5.3-44.9,6.4-27.3-14.4S497.7,159.2,497.7,159.2z"/>
	</g>
	<g>
		<path class="st5" d="M260.6,399.7c-0.4-5.4-0.6-10.9-0.6-16.5c0-55.2,19-106,50.7-146.3l0,0l-34-24.3c0,0-72.9,78.6-72.9,255.7
			L287.2,627v223.6h137.1v-319c0,0-110.2-17-110.2-131.6h-53.5L260.6,399.7z"/>
		<path class="st6" d="M325.1,742.2c0,0-11.2-38.5,54.5-104.2c0,0-149.4-52.4-119-238.3c0,0-10.6-85.2,50.1-162.8
			c0,0-94.9,97.6-67.7,287.5h-9.7L287.2,627v115.2H325.1z"/>
		<path class="st7" d="M305.3,408.8h-40.6c0,0-4.3,36.3,20.3,36.3S305.3,408.8,305.3,408.8z"/>
		<rect x="279.2" y="710.7" class="st8" width="153.9" height="59.8"/>
		<rect x="284.2" y="770.5" class="st9" width="144.1" height="80.2"/>
		<rect x="287.2" y="684.2" class="st10" width="137.1" height="9.1"/>
		<rect x="287.2" y="670.7" class="st11" width="137.1" height="9.1"/>
		<rect x="287.2" y="657.2" class="st12" width="137.1" height="9.1"/>
		<rect x="287.2" y="643.6" class="st13" width="137.1" height="9.1"/>
	</g>
	<g>
		<path class="st5" d="M732,399.7c0.4-5.4,0.6-10.9,0.6-16.5c0-55.2-19-106-50.7-146.3l0,0l34-24.3c0,0,72.9,78.6,72.9,255.7
			L705.5,627v223.6H568.4v-319c0,0,110.2-17,110.2-131.6h53.5L732,399.7z"/>
		<path class="st6" d="M667.6,742.2c0,0,11.2-38.5-54.5-104.2c0,0,149.4-52.4,119-238.3c0,0,10.6-85.2-50.1-162.8
			c0,0,94.9,97.6,67.7,287.5h9.7L705.5,627v115.2H667.6z"/>
		<path class="st7" d="M687.3,408.8h40.6c0,0,4.3,36.3-20.3,36.3C683.1,445.1,687.3,408.8,687.3,408.8z"/>
		
			<rect x="559.5" y="710.7" transform="matrix(-1 -4.500945e-11 4.500945e-11 -1 1272.9224 1481.1981)" class="st8" width="153.9" height="59.8"/>
		
			<rect x="564.4" y="770.5" transform="matrix(-1 -2.618451e-11 2.618451e-11 -1 1272.9224 1621.2019)" class="st9" width="144.1" height="80.2"/>
		
			<rect x="568.4" y="684.2" transform="matrix(-1 -4.469770e-11 4.469770e-11 -1 1273.9243 1377.5366)" class="st14" width="137.1" height="9.1"/>
		
			<rect x="568.4" y="643.6" transform="matrix(-1 -4.463153e-11 4.463153e-11 -1 1273.9243 1296.3142)" class="st15" width="137.1" height="9.1"/>
		<g>
			<path class="st16" d="M791.2,416.4l-4.9,0.7c-0.3,0-0.6-0.2-0.6-0.5l-9.2-62.7c0-0.3,0.2-0.6,0.5-0.6l4.9-0.7
				c0.3,0,0.6,0.2,0.6,0.5l9.2,62.7C791.7,416.1,791.5,416.4,791.2,416.4z"/>
			<path class="st17" d="M791.2,412.4c6.4-0.9,9.8-14.2,7.5-29.7s-9.3-27.2-15.7-26.2L791.2,412.4z"/>
		</g>
	</g>
</g>
<path class="st18" d="M424.2,684.2v-4.5v-9.1v-4.5v-9.1v-4.5v-9.1v-35c22.7,7.3,47,11.2,72.1,11.2c0.4,0,0.9,0,1.3,0V147
	c-0.4,0-0.9,0-1.3,0c-76.3,0-144.2,36.2-187.4,92.4c0.6-0.8,1.2-1.6,1.8-2.4l0,0l-34-24.3c0,0-72.9,78.6-72.9,255.7L287.2,627v16.6
	v9.1v4.5v9.1v4.5v9.1v4.5v9.1v17.4h-7.9v59.8h4.9v80.2h3h137.1h4v-80.2h4.9v-59.8h-8.9v-17.4V684.2z M260.6,400.1L260.6,400.1
	L260.6,400.1L260.6,400.1z"/>
</svg>
